ISO-10303-21;
HEADER;
/* Generated by software containing ST-Developer
 * from STEP Tools, Inc. (www.steptools.com) 
 */
/* OPTION: using custom renumber hook */

FILE_DESCRIPTION(
/* description */ ('STEP AP242 Edition 2',
'CAx-IF Rec.Pracs.---Representation and Presentation of Product Manufa
cturing Information (PMI)---4.0---2014-10-13',
'CAx-IF Rec.Pracs.---3D Tessellated Geometry---0.4---2014-09-14','2;1',
'CAx-IF Rec.Pracs.---User Defined Attributes---1.5---2016-08-15'),
/* implementation_level */ '2;1');

FILE_NAME(
/* name */ 'CatsEyesHolder - CatsEyesHolder',
/* time_stamp */ '2026-09-09T04:52:38Z',
/* author */ (''),
/* organization */ (''),
/* preprocessor_version */ 'ST-DEVELOPER v20',
/* originating_system */ 'ONSHAPE BY PTC INC, 1.220',
/* authorisation */ '  ');

FILE_SCHEMA (('AP242_MANAGED_MODEL_BASED_3D_ENGINEERING_MIM_LF { 1 0 10303 442 3 1 4 }'));
ENDSEC;

DATA;
#10=SHAPE_REPRESENTATION_RELATIONSHIP('','',#831,#11);
#11=ADVANCED_BREP_SHAPE_REPRESENTATION('',(#829),#1313);
#12=CYLINDRICAL_SURFACE('',#851,0.00085);
#13=CYLINDRICAL_SURFACE('',#852,0.00085);
#14=CYLINDRICAL_SURFACE('',#853,0.00085);
#15=CYLINDRICAL_SURFACE('',#854,0.00085);
#16=CIRCLE('',#839,0.00085);
#17=CIRCLE('',#840,0.00085);
#18=CIRCLE('',#841,0.00085);
#19=CIRCLE('',#842,0.00085);
#20=CIRCLE('',#847,0.00085);
#21=CIRCLE('',#848,0.00085);
#22=CIRCLE('',#849,0.00085);
#23=CIRCLE('',#850,0.00085);
#24=ORIENTED_EDGE('',*,*,#244,.F.);
#25=ORIENTED_EDGE('',*,*,#245,.F.);
#26=ORIENTED_EDGE('',*,*,#246,.T.);
#27=ORIENTED_EDGE('',*,*,#247,.T.);
#28=ORIENTED_EDGE('',*,*,#248,.F.);
#29=ORIENTED_EDGE('',*,*,#249,.T.);
#30=ORIENTED_EDGE('',*,*,#250,.F.);
#31=ORIENTED_EDGE('',*,*,#251,.F.);
#32=ORIENTED_EDGE('',*,*,#252,.F.);
#33=ORIENTED_EDGE('',*,*,#253,.F.);
#34=ORIENTED_EDGE('',*,*,#254,.T.);
#35=ORIENTED_EDGE('',*,*,#255,.T.);
#36=ORIENTED_EDGE('',*,*,#253,.T.);
#37=ORIENTED_EDGE('',*,*,#256,.T.);
#38=ORIENTED_EDGE('',*,*,#257,.F.);
#39=ORIENTED_EDGE('',*,*,#258,.T.);
#40=ORIENTED_EDGE('',*,*,#259,.F.);
#41=ORIENTED_EDGE('',*,*,#260,.F.);
#42=ORIENTED_EDGE('',*,*,#261,.T.);
#43=ORIENTED_EDGE('',*,*,#262,.T.);
#44=ORIENTED_EDGE('',*,*,#263,.T.);
#45=ORIENTED_EDGE('',*,*,#264,.T.);
#46=ORIENTED_EDGE('',*,*,#250,.T.);
#47=ORIENTED_EDGE('',*,*,#265,.F.);
#48=ORIENTED_EDGE('',*,*,#266,.F.);
#49=ORIENTED_EDGE('',*,*,#267,.T.);
#50=ORIENTED_EDGE('',*,*,#268,.F.);
#51=ORIENTED_EDGE('',*,*,#269,.F.);
#52=ORIENTED_EDGE('',*,*,#270,.F.);
#53=ORIENTED_EDGE('',*,*,#271,.F.);
#54=ORIENTED_EDGE('',*,*,#272,.F.);
#55=ORIENTED_EDGE('',*,*,#273,.F.);
#56=ORIENTED_EDGE('',*,*,#274,.F.);
#57=ORIENTED_EDGE('',*,*,#275,.F.);
#58=ORIENTED_EDGE('',*,*,#251,.T.);
#59=ORIENTED_EDGE('',*,*,#264,.F.);
#60=ORIENTED_EDGE('',*,*,#276,.T.);
#61=ORIENTED_EDGE('',*,*,#277,.F.);
#62=ORIENTED_EDGE('',*,*,#278,.F.);
#63=ORIENTED_EDGE('',*,*,#267,.F.);
#64=ORIENTED_EDGE('',*,*,#279,.F.);
#65=ORIENTED_EDGE('',*,*,#280,.T.);
#66=ORIENTED_EDGE('',*,*,#281,.T.);
#67=ORIENTED_EDGE('',*,*,#282,.T.);
#68=ORIENTED_EDGE('',*,*,#283,.F.);
#69=ORIENTED_EDGE('',*,*,#284,.T.);
#70=ORIENTED_EDGE('',*,*,#285,.T.);
#71=ORIENTED_EDGE('',*,*,#286,.T.);
#72=ORIENTED_EDGE('',*,*,#287,.T.);
#73=ORIENTED_EDGE('',*,*,#288,.T.);
#74=ORIENTED_EDGE('',*,*,#289,.T.);
#75=ORIENTED_EDGE('',*,*,#290,.T.);
#76=ORIENTED_EDGE('',*,*,#291,.T.);
#77=ORIENTED_EDGE('',*,*,#247,.F.);
#78=ORIENTED_EDGE('',*,*,#292,.F.);
#79=ORIENTED_EDGE('',*,*,#293,.F.);
#80=ORIENTED_EDGE('',*,*,#294,.F.);
#81=ORIENTED_EDGE('',*,*,#295,.F.);
#82=ORIENTED_EDGE('',*,*,#296,.F.);
#83=ORIENTED_EDGE('',*,*,#297,.T.);
#84=ORIENTED_EDGE('',*,*,#298,.T.);
#85=ORIENTED_EDGE('',*,*,#299,.F.);
#86=ORIENTED_EDGE('',*,*,#300,.F.);
#87=ORIENTED_EDGE('',*,*,#301,.T.);
#88=ORIENTED_EDGE('',*,*,#255,.F.);
#89=ORIENTED_EDGE('',*,*,#302,.F.);
#90=ORIENTED_EDGE('',*,*,#303,.F.);
#91=ORIENTED_EDGE('',*,*,#279,.T.);
#92=ORIENTED_EDGE('',*,*,#266,.T.);
#93=ORIENTED_EDGE('',*,*,#304,.F.);
#94=ORIENTED_EDGE('',*,*,#305,.T.);
#95=ORIENTED_EDGE('',*,*,#280,.F.);
#96=ORIENTED_EDGE('',*,*,#303,.T.);
#97=ORIENTED_EDGE('',*,*,#306,.T.);
#98=ORIENTED_EDGE('',*,*,#307,.F.);
#99=ORIENTED_EDGE('',*,*,#284,.F.);
#100=ORIENTED_EDGE('',*,*,#308,.F.);
#101=ORIENTED_EDGE('',*,*,#309,.T.);
#102=ORIENTED_EDGE('',*,*,#310,.T.);
#103=ORIENTED_EDGE('',*,*,#285,.F.);
#104=ORIENTED_EDGE('',*,*,#307,.T.);
#105=ORIENTED_EDGE('',*,*,#311,.T.);
#106=ORIENTED_EDGE('',*,*,#312,.T.);
#107=ORIENTED_EDGE('',*,*,#313,.T.);
#108=ORIENTED_EDGE('',*,*,#314,.T.);
#109=ORIENTED_EDGE('',*,*,#249,.F.);
#110=ORIENTED_EDGE('',*,*,#315,.F.);
#111=ORIENTED_EDGE('',*,*,#316,.F.);
#112=ORIENTED_EDGE('',*,*,#317,.F.);
#113=ORIENTED_EDGE('',*,*,#318,.F.);
#114=ORIENTED_EDGE('',*,*,#319,.F.);
#115=ORIENTED_EDGE('',*,*,#320,.F.);
#116=ORIENTED_EDGE('',*,*,#321,.T.);
#117=ORIENTED_EDGE('',*,*,#245,.T.);
#118=ORIENTED_EDGE('',*,*,#322,.T.);
#119=ORIENTED_EDGE('',*,*,#323,.T.);
#120=ORIENTED_EDGE('',*,*,#324,.T.);
#121=ORIENTED_EDGE('',*,*,#325,.T.);
#122=ORIENTED_EDGE('',*,*,#326,.T.);
#123=ORIENTED_EDGE('',*,*,#327,.T.);
#124=ORIENTED_EDGE('',*,*,#309,.F.);
#125=ORIENTED_EDGE('',*,*,#306,.F.);
#126=ORIENTED_EDGE('',*,*,#302,.T.);
#127=ORIENTED_EDGE('',*,*,#265,.T.);
#128=ORIENTED_EDGE('',*,*,#295,.T.);
#129=ORIENTED_EDGE('',*,*,#314,.F.);
#130=ORIENTED_EDGE('',*,*,#294,.T.);
#131=ORIENTED_EDGE('',*,*,#313,.F.);
#132=ORIENTED_EDGE('',*,*,#293,.T.);
#133=ORIENTED_EDGE('',*,*,#312,.F.);
#134=ORIENTED_EDGE('',*,*,#292,.T.);
#135=ORIENTED_EDGE('',*,*,#311,.F.);
#136=ORIENTED_EDGE('',*,*,#278,.T.);
#137=ORIENTED_EDGE('',*,*,#328,.F.);
#138=ORIENTED_EDGE('',*,*,#329,.F.);
#139=ORIENTED_EDGE('',*,*,#268,.T.);
#140=ORIENTED_EDGE('',*,*,#277,.T.);
#141=ORIENTED_EDGE('',*,*,#330,.F.);
#142=ORIENTED_EDGE('',*,*,#331,.F.);
#143=ORIENTED_EDGE('',*,*,#328,.T.);
#144=ORIENTED_EDGE('',*,*,#276,.F.);
#145=ORIENTED_EDGE('',*,*,#263,.F.);
#146=ORIENTED_EDGE('',*,*,#332,.T.);
#147=ORIENTED_EDGE('',*,*,#330,.T.);
#148=ORIENTED_EDGE('',*,*,#262,.F.);
#149=ORIENTED_EDGE('',*,*,#329,.T.);
#150=ORIENTED_EDGE('',*,*,#331,.T.);
#151=ORIENTED_EDGE('',*,*,#332,.F.);
#152=ORIENTED_EDGE('',*,*,#297,.F.);
#153=ORIENTED_EDGE('',*,*,#333,.F.);
#154=ORIENTED_EDGE('',*,*,#260,.T.);
#155=ORIENTED_EDGE('',*,*,#334,.T.);
#156=ORIENTED_EDGE('',*,*,#296,.T.);
#157=ORIENTED_EDGE('',*,*,#254,.F.);
#158=ORIENTED_EDGE('',*,*,#261,.F.);
#159=ORIENTED_EDGE('',*,*,#333,.T.);
#160=ORIENTED_EDGE('',*,*,#258,.F.);
#161=ORIENTED_EDGE('',*,*,#335,.T.);
#162=ORIENTED_EDGE('',*,*,#299,.T.);
#163=ORIENTED_EDGE('',*,*,#336,.F.);
#164=ORIENTED_EDGE('',*,*,#298,.F.);
#165=ORIENTED_EDGE('',*,*,#334,.F.);
#166=ORIENTED_EDGE('',*,*,#259,.T.);
#167=ORIENTED_EDGE('',*,*,#336,.T.);
#168=ORIENTED_EDGE('',*,*,#281,.F.);
#169=ORIENTED_EDGE('',*,*,#305,.F.);
#170=ORIENTED_EDGE('',*,*,#337,.T.);
#171=ORIENTED_EDGE('',*,*,#338,.T.);
#172=ORIENTED_EDGE('',*,*,#283,.T.);
#173=ORIENTED_EDGE('',*,*,#339,.F.);
#174=ORIENTED_EDGE('',*,*,#340,.F.);
#175=ORIENTED_EDGE('',*,*,#308,.T.);
#176=ORIENTED_EDGE('',*,*,#282,.F.);
#177=ORIENTED_EDGE('',*,*,#338,.F.);
#178=ORIENTED_EDGE('',*,*,#341,.T.);
#179=ORIENTED_EDGE('',*,*,#339,.T.);
#180=ORIENTED_EDGE('',*,*,#337,.F.);
#181=ORIENTED_EDGE('',*,*,#304,.T.);
#182=ORIENTED_EDGE('',*,*,#340,.T.);
#183=ORIENTED_EDGE('',*,*,#341,.F.);
#184=ORIENTED_EDGE('',*,*,#335,.F.);
#185=ORIENTED_EDGE('',*,*,#257,.T.);
#186=ORIENTED_EDGE('',*,*,#342,.T.);
#187=ORIENTED_EDGE('',*,*,#300,.T.);
#188=ORIENTED_EDGE('',*,*,#256,.F.);
#189=ORIENTED_EDGE('',*,*,#252,.T.);
#190=ORIENTED_EDGE('',*,*,#301,.F.);
#191=ORIENTED_EDGE('',*,*,#342,.F.);
#192=ORIENTED_EDGE('',*,*,#321,.F.);
#193=ORIENTED_EDGE('',*,*,#343,.T.);
#194=ORIENTED_EDGE('',*,*,#269,.T.);
#195=ORIENTED_EDGE('',*,*,#246,.F.);
#196=ORIENTED_EDGE('',*,*,#326,.F.);
#197=ORIENTED_EDGE('',*,*,#344,.T.);
#198=ORIENTED_EDGE('',*,*,#287,.F.);
#199=ORIENTED_EDGE('',*,*,#345,.F.);
#200=ORIENTED_EDGE('',*,*,#327,.F.);
#201=ORIENTED_EDGE('',*,*,#345,.T.);
#202=ORIENTED_EDGE('',*,*,#286,.F.);
#203=ORIENTED_EDGE('',*,*,#310,.F.);
#204=ORIENTED_EDGE('',*,*,#346,.F.);
#205=ORIENTED_EDGE('',*,*,#316,.T.);
#206=ORIENTED_EDGE('',*,*,#347,.T.);
#207=ORIENTED_EDGE('',*,*,#274,.T.);
#208=ORIENTED_EDGE('',*,*,#347,.F.);
#209=ORIENTED_EDGE('',*,*,#315,.T.);
#210=ORIENTED_EDGE('',*,*,#248,.T.);
#211=ORIENTED_EDGE('',*,*,#275,.T.);
#212=ORIENTED_EDGE('',*,*,#348,.F.);
#213=ORIENTED_EDGE('',*,*,#318,.T.);
#214=ORIENTED_EDGE('',*,*,#349,.T.);
#215=ORIENTED_EDGE('',*,*,#272,.T.);
#216=ORIENTED_EDGE('',*,*,#349,.F.);
#217=ORIENTED_EDGE('',*,*,#317,.T.);
#218=ORIENTED_EDGE('',*,*,#346,.T.);
#219=ORIENTED_EDGE('',*,*,#273,.T.);
#220=ORIENTED_EDGE('',*,*,#343,.F.);
#221=ORIENTED_EDGE('',*,*,#320,.T.);
#222=ORIENTED_EDGE('',*,*,#350,.T.);
#223=ORIENTED_EDGE('',*,*,#270,.T.);
#224=ORIENTED_EDGE('',*,*,#350,.F.);
#225=ORIENTED_EDGE('',*,*,#319,.T.);
#226=ORIENTED_EDGE('',*,*,#348,.T.);
#227=ORIENTED_EDGE('',*,*,#271,.T.);
#228=ORIENTED_EDGE('',*,*,#324,.F.);
#229=ORIENTED_EDGE('',*,*,#351,.T.);
#230=ORIENTED_EDGE('',*,*,#289,.F.);
#231=ORIENTED_EDGE('',*,*,#352,.F.);
#232=ORIENTED_EDGE('',*,*,#325,.F.);
#233=ORIENTED_EDGE('',*,*,#352,.T.);
#234=ORIENTED_EDGE('',*,*,#288,.F.);
#235=ORIENTED_EDGE('',*,*,#344,.F.);
#236=ORIENTED_EDGE('',*,*,#322,.F.);
#237=ORIENTED_EDGE('',*,*,#244,.T.);
#238=ORIENTED_EDGE('',*,*,#291,.F.);
#239=ORIENTED_EDGE('',*,*,#353,.F.);
#240=ORIENTED_EDGE('',*,*,#323,.F.);
#241=ORIENTED_EDGE('',*,*,#353,.T.);
#242=ORIENTED_EDGE('',*,*,#290,.F.);
#243=ORIENTED_EDGE('',*,*,#351,.F.);
#244=EDGE_CURVE('',#354,#355,#430,.T.);
#245=EDGE_CURVE('',#356,#354,#431,.T.);
#246=EDGE_CURVE('',#356,#357,#432,.T.);
#247=EDGE_CURVE('',#357,#355,#433,.T.);
#248=EDGE_CURVE('',#358,#359,#434,.T.);
#249=EDGE_CURVE('',#358,#360,#435,.T.);
#250=EDGE_CURVE('',#361,#360,#436,.T.);
#251=EDGE_CURVE('',#359,#361,#437,.T.);
#252=EDGE_CURVE('',#362,#363,#438,.T.);
#253=EDGE_CURVE('',#364,#362,#439,.T.);
#254=EDGE_CURVE('',#364,#365,#440,.T.);
#255=EDGE_CURVE('',#365,#363,#441,.T.);
#256=EDGE_CURVE('',#362,#366,#442,.T.);
#257=EDGE_CURVE('',#367,#366,#443,.T.);
#258=EDGE_CURVE('',#367,#368,#444,.T.);
#259=EDGE_CURVE('',#369,#368,#445,.T.);
#260=EDGE_CURVE('',#370,#369,#446,.T.);
#261=EDGE_CURVE('',#370,#364,#447,.T.);
#262=EDGE_CURVE('',#371,#372,#448,.T.);
#263=EDGE_CURVE('',#372,#373,#449,.T.);
#264=EDGE_CURVE('',#373,#361,#450,.T.);
#265=EDGE_CURVE('',#374,#360,#451,.T.);
#266=EDGE_CURVE('',#375,#374,#452,.T.);
#267=EDGE_CURVE('',#375,#376,#453,.T.);
#268=EDGE_CURVE('',#371,#376,#454,.T.);
#269=EDGE_CURVE('',#377,#357,#455,.T.);
#270=EDGE_CURVE('',#378,#377,#456,.T.);
#271=EDGE_CURVE('',#379,#378,#457,.T.);
#272=EDGE_CURVE('',#380,#379,#458,.T.);
#273=EDGE_CURVE('',#381,#380,#459,.T.);
#274=EDGE_CURVE('',#382,#381,#460,.T.);
#275=EDGE_CURVE('',#359,#382,#461,.T.);
#276=EDGE_CURVE('',#373,#383,#462,.T.);
#277=EDGE_CURVE('',#384,#383,#463,.T.);
#278=EDGE_CURVE('',#376,#384,#464,.T.);
#279=EDGE_CURVE('',#385,#375,#465,.T.);
#280=EDGE_CURVE('',#385,#386,#466,.T.);
#281=EDGE_CURVE('',#386,#387,#467,.T.);
#282=EDGE_CURVE('',#387,#388,#468,.T.);
#283=EDGE_CURVE('',#389,#388,#469,.T.);
#284=EDGE_CURVE('',#389,#390,#470,.T.);
#285=EDGE_CURVE('',#390,#391,#471,.T.);
#286=EDGE_CURVE('',#391,#392,#472,.T.);
#287=EDGE_CURVE('',#392,#393,#473,.T.);
#288=EDGE_CURVE('',#393,#394,#474,.T.);
#289=EDGE_CURVE('',#394,#395,#475,.T.);
#290=EDGE_CURVE('',#395,#396,#476,.T.);
#291=EDGE_CURVE('',#396,#355,#477,.T.);
#292=EDGE_CURVE('',#397,#397,#16,.T.);
#293=EDGE_CURVE('',#398,#398,#17,.T.);
#294=EDGE_CURVE('',#399,#399,#18,.T.);
#295=EDGE_CURVE('',#400,#400,#19,.T.);
#296=EDGE_CURVE('',#401,#365,#478,.T.);
#297=EDGE_CURVE('',#401,#402,#479,.T.);
#298=EDGE_CURVE('',#402,#403,#480,.T.);
#299=EDGE_CURVE('',#404,#403,#481,.T.);
#300=EDGE_CURVE('',#405,#404,#482,.T.);
#301=EDGE_CURVE('',#405,#363,#483,.T.);
#302=EDGE_CURVE('',#406,#374,#484,.T.);
#303=EDGE_CURVE('',#385,#406,#485,.T.);
#304=EDGE_CURVE('',#407,#408,#486,.T.);
#305=EDGE_CURVE('',#407,#386,#487,.T.);
#306=EDGE_CURVE('',#406,#409,#488,.T.);
#307=EDGE_CURVE('',#390,#409,#489,.T.);
#308=EDGE_CURVE('',#408,#389,#490,.T.);
#309=EDGE_CURVE('',#409,#410,#491,.T.);
#310=EDGE_CURVE('',#410,#391,#492,.T.);
#311=EDGE_CURVE('',#411,#411,#20,.T.);
#312=EDGE_CURVE('',#412,#412,#21,.T.);
#313=EDGE_CURVE('',#413,#413,#22,.T.);
#314=EDGE_CURVE('',#414,#414,#23,.T.);
#315=EDGE_CURVE('',#415,#358,#493,.T.);
#316=EDGE_CURVE('',#416,#415,#494,.T.);
#317=EDGE_CURVE('',#417,#416,#495,.T.);
#318=EDGE_CURVE('',#418,#417,#496,.T.);
#319=EDGE_CURVE('',#419,#418,#497,.T.);
#320=EDGE_CURVE('',#420,#419,#498,.T.);
#321=EDGE_CURVE('',#420,#356,#499,.T.);
#322=EDGE_CURVE('',#354,#421,#500,.T.);
#323=EDGE_CURVE('',#421,#422,#501,.T.);
#324=EDGE_CURVE('',#422,#423,#502,.T.);
#325=EDGE_CURVE('',#423,#424,#503,.T.);
#326=EDGE_CURVE('',#424,#425,#504,.T.);
#327=EDGE_CURVE('',#425,#410,#505,.T.);
#328=EDGE_CURVE('',#426,#384,#506,.T.);
#329=EDGE_CURVE('',#371,#426,#507,.T.);
#330=EDGE_CURVE('',#427,#383,#508,.T.);
#331=EDGE_CURVE('',#426,#427,#509,.T.);
#332=EDGE_CURVE('',#372,#427,#510,.T.);
#333=EDGE_CURVE('',#370,#401,#511,.T.);
#334=EDGE_CURVE('',#369,#402,#512,.T.);
#335=EDGE_CURVE('',#367,#404,#513,.T.);
#336=EDGE_CURVE('',#368,#403,#514,.T.);
#337=EDGE_CURVE('',#407,#428,#515,.T.);
#338=EDGE_CURVE('',#428,#387,#516,.T.);
#339=EDGE_CURVE('',#429,#388,#517,.T.);
#340=EDGE_CURVE('',#408,#429,#518,.T.);
#341=EDGE_CURVE('',#428,#429,#519,.T.);
#342=EDGE_CURVE('',#366,#405,#520,.T.);
#343=EDGE_CURVE('',#420,#377,#521,.T.);
#344=EDGE_CURVE('',#424,#393,#522,.T.);
#345=EDGE_CURVE('',#425,#392,#523,.T.);
#346=EDGE_CURVE('',#416,#381,#524,.T.);
#347=EDGE_CURVE('',#415,#382,#525,.T.);
#348=EDGE_CURVE('',#418,#379,#526,.T.);
#349=EDGE_CURVE('',#417,#380,#527,.T.);
#350=EDGE_CURVE('',#419,#378,#528,.T.);
#351=EDGE_CURVE('',#422,#395,#529,.T.);
#352=EDGE_CURVE('',#423,#394,#530,.T.);
#353=EDGE_CURVE('',#421,#396,#531,.T.);
#354=VERTEX_POINT('',#1087);
#355=VERTEX_POINT('',#1088);
#356=VERTEX_POINT('',#1090);
#357=VERTEX_POINT('',#1092);
#358=VERTEX_POINT('',#1096);
#359=VERTEX_POINT('',#1097);
#360=VERTEX_POINT('',#1099);
#361=VERTEX_POINT('',#1101);
#362=VERTEX_POINT('',#1105);
#363=VERTEX_POINT('',#1106);
#364=VERTEX_POINT('',#1108);
#365=VERTEX_POINT('',#1110);
#366=VERTEX_POINT('',#1114);
#367=VERTEX_POINT('',#1116);
#368=VERTEX_POINT('',#1118);
#369=VERTEX_POINT('',#1120);
#370=VERTEX_POINT('',#1122);
#371=VERTEX_POINT('',#1126);
#372=VERTEX_POINT('',#1127);
#373=VERTEX_POINT('',#1129);
#374=VERTEX_POINT('',#1132);
#375=VERTEX_POINT('',#1134);
#376=VERTEX_POINT('',#1136);
#377=VERTEX_POINT('',#1140);
#378=VERTEX_POINT('',#1142);
#379=VERTEX_POINT('',#1144);
#380=VERTEX_POINT('',#1146);
#381=VERTEX_POINT('',#1148);
#382=VERTEX_POINT('',#1150);
#383=VERTEX_POINT('',#1153);
#384=VERTEX_POINT('',#1155);
#385=VERTEX_POINT('',#1158);
#386=VERTEX_POINT('',#1160);
#387=VERTEX_POINT('',#1162);
#388=VERTEX_POINT('',#1164);
#389=VERTEX_POINT('',#1166);
#390=VERTEX_POINT('',#1168);
#391=VERTEX_POINT('',#1170);
#392=VERTEX_POINT('',#1172);
#393=VERTEX_POINT('',#1174);
#394=VERTEX_POINT('',#1176);
#395=VERTEX_POINT('',#1178);
#396=VERTEX_POINT('',#1180);
#397=VERTEX_POINT('',#1183);
#398=VERTEX_POINT('',#1185);
#399=VERTEX_POINT('',#1187);
#400=VERTEX_POINT('',#1189);
#401=VERTEX_POINT('',#1191);
#402=VERTEX_POINT('',#1193);
#403=VERTEX_POINT('',#1195);
#404=VERTEX_POINT('',#1197);
#405=VERTEX_POINT('',#1199);
#406=VERTEX_POINT('',#1203);
#407=VERTEX_POINT('',#1207);
#408=VERTEX_POINT('',#1208);
#409=VERTEX_POINT('',#1211);
#410=VERTEX_POINT('',#1216);
#411=VERTEX_POINT('',#1220);
#412=VERTEX_POINT('',#1222);
#413=VERTEX_POINT('',#1224);
#414=VERTEX_POINT('',#1226);
#415=VERTEX_POINT('',#1228);
#416=VERTEX_POINT('',#1230);
#417=VERTEX_POINT('',#1232);
#418=VERTEX_POINT('',#1234);
#419=VERTEX_POINT('',#1236);
#420=VERTEX_POINT('',#1238);
#421=VERTEX_POINT('',#1241);
#422=VERTEX_POINT('',#1243);
#423=VERTEX_POINT('',#1245);
#424=VERTEX_POINT('',#1247);
#425=VERTEX_POINT('',#1249);
#426=VERTEX_POINT('',#1257);
#427=VERTEX_POINT('',#1261);
#428=VERTEX_POINT('',#1276);
#429=VERTEX_POINT('',#1280);
#430=LINE('',#1086,#532);
#431=LINE('',#1089,#533);
#432=LINE('',#1091,#534);
#433=LINE('',#1093,#535);
#434=LINE('',#1095,#536);
#435=LINE('',#1098,#537);
#436=LINE('',#1100,#538);
#437=LINE('',#1102,#539);
#438=LINE('',#1104,#540);
#439=LINE('',#1107,#541);
#440=LINE('',#1109,#542);
#441=LINE('',#1111,#543);
#442=LINE('',#1113,#544);
#443=LINE('',#1115,#545);
#444=LINE('',#1117,#546);
#445=LINE('',#1119,#547);
#446=LINE('',#1121,#548);
#447=LINE('',#1123,#549);
#448=LINE('',#1125,#550);
#449=LINE('',#1128,#551);
#450=LINE('',#1130,#552);
#451=LINE('',#1131,#553);
#452=LINE('',#1133,#554);
#453=LINE('',#1135,#555);
#454=LINE('',#1137,#556);
#455=LINE('',#1139,#557);
#456=LINE('',#1141,#558);
#457=LINE('',#1143,#559);
#458=LINE('',#1145,#560);
#459=LINE('',#1147,#561);
#460=LINE('',#1149,#562);
#461=LINE('',#1151,#563);
#462=LINE('',#1152,#564);
#463=LINE('',#1154,#565);
#464=LINE('',#1156,#566);
#465=LINE('',#1157,#567);
#466=LINE('',#1159,#568);
#467=LINE('',#1161,#569);
#468=LINE('',#1163,#570);
#469=LINE('',#1165,#571);
#470=LINE('',#1167,#572);
#471=LINE('',#1169,#573);
#472=LINE('',#1171,#574);
#473=LINE('',#1173,#575);
#474=LINE('',#1175,#576);
#475=LINE('',#1177,#577);
#476=LINE('',#1179,#578);
#477=LINE('',#1181,#579);
#478=LINE('',#1190,#580);
#479=LINE('',#1192,#581);
#480=LINE('',#1194,#582);
#481=LINE('',#1196,#583);
#482=LINE('',#1198,#584);
#483=LINE('',#1200,#585);
#484=LINE('',#1202,#586);
#485=LINE('',#1204,#587);
#486=LINE('',#1206,#588);
#487=LINE('',#1209,#589);
#488=LINE('',#1210,#590);
#489=LINE('',#1212,#591);
#490=LINE('',#1213,#592);
#491=LINE('',#1215,#593);
#492=LINE('',#1217,#594);
#493=LINE('',#1227,#595);
#494=LINE('',#1229,#596);
#495=LINE('',#1231,#597);
#496=LINE('',#1233,#598);
#497=LINE('',#1235,#599);
#498=LINE('',#1237,#600);
#499=LINE('',#1239,#601);
#500=LINE('',#1240,#602);
#501=LINE('',#1242,#603);
#502=LINE('',#1244,#604);
#503=LINE('',#1246,#605);
#504=LINE('',#1248,#606);
#505=LINE('',#1250,#607);
#506=LINE('',#1256,#608);
#507=LINE('',#1258,#609);
#508=LINE('',#1260,#610);
#509=LINE('',#1262,#611);
#510=LINE('',#1264,#612);
#511=LINE('',#1267,#613);
#512=LINE('',#1268,#614);
#513=LINE('',#1271,#615);
#514=LINE('',#1272,#616);
#515=LINE('',#1275,#617);
#516=LINE('',#1277,#618);
#517=LINE('',#1279,#619);
#518=LINE('',#1281,#620);
#519=LINE('',#1283,#621);
#520=LINE('',#1286,#622);
#521=LINE('',#1289,#623);
#522=LINE('',#1291,#624);
#523=LINE('',#1292,#625);
#524=LINE('',#1295,#626);
#525=LINE('',#1296,#627);
#526=LINE('',#1299,#628);
#527=LINE('',#1300,#629);
#528=LINE('',#1303,#630);
#529=LINE('',#1306,#631);
#530=LINE('',#1307,#632);
#531=LINE('',#1310,#633);
#532=VECTOR('',#886,1.);
#533=VECTOR('',#887,1.);
#534=VECTOR('',#888,1.);
#535=VECTOR('',#889,1.);
#536=VECTOR('',#892,1.);
#537=VECTOR('',#893,1.);
#538=VECTOR('',#894,1.);
#539=VECTOR('',#895,1.);
#540=VECTOR('',#898,1.);
#541=VECTOR('',#899,1.);
#542=VECTOR('',#900,1.);
#543=VECTOR('',#901,1.);
#544=VECTOR('',#904,1.);
#545=VECTOR('',#905,1.);
#546=VECTOR('',#906,1.);
#547=VECTOR('',#907,1.);
#548=VECTOR('',#908,1.);
#549=VECTOR('',#909,1.);
#550=VECTOR('',#912,1.);
#551=VECTOR('',#913,1.);
#552=VECTOR('',#914,1.);
#553=VECTOR('',#915,1.);
#554=VECTOR('',#916,1.);
#555=VECTOR('',#917,1.);
#556=VECTOR('',#918,1.);
#557=VECTOR('',#921,1.);
#558=VECTOR('',#922,1.);
#559=VECTOR('',#923,1.);
#560=VECTOR('',#924,1.);
#561=VECTOR('',#925,1.);
#562=VECTOR('',#926,1.);
#563=VECTOR('',#927,1.);
#564=VECTOR('',#928,1.);
#565=VECTOR('',#929,1.);
#566=VECTOR('',#930,1.);
#567=VECTOR('',#931,1.);
#568=VECTOR('',#932,1.);
#569=VECTOR('',#933,1.);
#570=VECTOR('',#934,1.);
#571=VECTOR('',#935,1.);
#572=VECTOR('',#936,1.);
#573=VECTOR('',#937,1.);
#574=VECTOR('',#938,1.);
#575=VECTOR('',#939,1.);
#576=VECTOR('',#940,1.);
#577=VECTOR('',#941,1.);
#578=VECTOR('',#942,1.);
#579=VECTOR('',#943,1.);
#580=VECTOR('',#952,1.);
#581=VECTOR('',#953,1.);
#582=VECTOR('',#954,1.);
#583=VECTOR('',#955,1.);
#584=VECTOR('',#956,1.);
#585=VECTOR('',#957,1.);
#586=VECTOR('',#960,1.);
#587=VECTOR('',#961,1.);
#588=VECTOR('',#964,1.);
#589=VECTOR('',#965,1.);
#590=VECTOR('',#966,1.);
#591=VECTOR('',#967,1.);
#592=VECTOR('',#968,1.);
#593=VECTOR('',#971,1.);
#594=VECTOR('',#972,1.);
#595=VECTOR('',#983,1.);
#596=VECTOR('',#984,1.);
#597=VECTOR('',#985,1.);
#598=VECTOR('',#986,1.);
#599=VECTOR('',#987,1.);
#600=VECTOR('',#988,1.);
#601=VECTOR('',#989,1.);
#602=VECTOR('',#990,1.);
#603=VECTOR('',#991,1.);
#604=VECTOR('',#992,1.);
#605=VECTOR('',#993,1.);
#606=VECTOR('',#994,1.);
#607=VECTOR('',#995,1.);
#608=VECTOR('',#1006,1.);
#609=VECTOR('',#1007,1.);
#610=VECTOR('',#1010,1.);
#611=VECTOR('',#1011,1.);
#612=VECTOR('',#1014,1.);
#613=VECTOR('',#1019,1.);
#614=VECTOR('',#1020,1.);
#615=VECTOR('',#1025,1.);
#616=VECTOR('',#1026,1.);
#617=VECTOR('',#1031,1.);
#618=VECTOR('',#1032,1.);
#619=VECTOR('',#1035,1.);
#620=VECTOR('',#1036,1.);
#621=VECTOR('',#1039,1.);
#622=VECTOR('',#1044,1.);
#623=VECTOR('',#1049,1.);
#624=VECTOR('',#1052,1.);
#625=VECTOR('',#1053,1.);
#626=VECTOR('',#1058,1.);
#627=VECTOR('',#1059,1.);
#628=VECTOR('',#1064,1.);
#629=VECTOR('',#1065,1.);
#630=VECTOR('',#1070,1.);
#631=VECTOR('',#1075,1.);
#632=VECTOR('',#1076,1.);
#633=VECTOR('',#1081,1.);
#634=EDGE_LOOP('',(#24,#25,#26,#27));
#635=EDGE_LOOP('',(#28,#29,#30,#31));
#636=EDGE_LOOP('',(#32,#33,#34,#35));
#637=EDGE_LOOP('',(#36,#37,#38,#39,#40,#41,#42));
#638=EDGE_LOOP('',(#43,#44,#45,#46,#47,#48,#49,#50));
#639=EDGE_LOOP('',(#51,#52,#53,#54,#55,#56,#57,#58,#59,#60,#61,#62,#63,
#64,#65,#66,#67,#68,#69,#70,#71,#72,#73,#74,#75,#76,#77));
#640=EDGE_LOOP('',(#78));
#641=EDGE_LOOP('',(#79));
#642=EDGE_LOOP('',(#80));
#643=EDGE_LOOP('',(#81));
#644=EDGE_LOOP('',(#82,#83,#84,#85,#86,#87,#88));
#645=EDGE_LOOP('',(#89,#90,#91,#92));
#646=EDGE_LOOP('',(#93,#94,#95,#96,#97,#98,#99,#100));
#647=EDGE_LOOP('',(#101,#102,#103,#104));
#648=EDGE_LOOP('',(#105));
#649=EDGE_LOOP('',(#106));
#650=EDGE_LOOP('',(#107));
#651=EDGE_LOOP('',(#108));
#652=EDGE_LOOP('',(#109,#110,#111,#112,#113,#114,#115,#116,#117,#118,#119,
#120,#121,#122,#123,#124,#125,#126,#127));
#653=EDGE_LOOP('',(#128));
#654=EDGE_LOOP('',(#129));
#655=EDGE_LOOP('',(#130));
#656=EDGE_LOOP('',(#131));
#657=EDGE_LOOP('',(#132));
#658=EDGE_LOOP('',(#133));
#659=EDGE_LOOP('',(#134));
#660=EDGE_LOOP('',(#135));
#661=EDGE_LOOP('',(#136,#137,#138,#139));
#662=EDGE_LOOP('',(#140,#141,#142,#143));
#663=EDGE_LOOP('',(#144,#145,#146,#147));
#664=EDGE_LOOP('',(#148,#149,#150,#151));
#665=EDGE_LOOP('',(#152,#153,#154,#155));
#666=EDGE_LOOP('',(#156,#157,#158,#159));
#667=EDGE_LOOP('',(#160,#161,#162,#163));
#668=EDGE_LOOP('',(#164,#165,#166,#167));
#669=EDGE_LOOP('',(#168,#169,#170,#171));
#670=EDGE_LOOP('',(#172,#173,#174,#175));
#671=EDGE_LOOP('',(#176,#177,#178,#179));
#672=EDGE_LOOP('',(#180,#181,#182,#183));
#673=EDGE_LOOP('',(#184,#185,#186,#187));
#674=EDGE_LOOP('',(#188,#189,#190,#191));
#675=EDGE_LOOP('',(#192,#193,#194,#195));
#676=EDGE_LOOP('',(#196,#197,#198,#199));
#677=EDGE_LOOP('',(#200,#201,#202,#203));
#678=EDGE_LOOP('',(#204,#205,#206,#207));
#679=EDGE_LOOP('',(#208,#209,#210,#211));
#680=EDGE_LOOP('',(#212,#213,#214,#215));
#681=EDGE_LOOP('',(#216,#217,#218,#219));
#682=EDGE_LOOP('',(#220,#221,#222,#223));
#683=EDGE_LOOP('',(#224,#225,#226,#227));
#684=EDGE_LOOP('',(#228,#229,#230,#231));
#685=EDGE_LOOP('',(#232,#233,#234,#235));
#686=EDGE_LOOP('',(#236,#237,#238,#239));
#687=EDGE_LOOP('',(#240,#241,#242,#243));
#688=FACE_BOUND('',#634,.T.);
#689=FACE_BOUND('',#635,.T.);
#690=FACE_BOUND('',#636,.T.);
#691=FACE_BOUND('',#637,.T.);
#692=FACE_BOUND('',#638,.T.);
#693=FACE_BOUND('',#639,.T.);
#694=FACE_BOUND('',#640,.T.);
#695=FACE_BOUND('',#641,.T.);
#696=FACE_BOUND('',#642,.T.);
#697=FACE_BOUND('',#643,.T.);
#698=FACE_BOUND('',#644,.T.);
#699=FACE_BOUND('',#645,.T.);
#700=FACE_BOUND('',#646,.T.);
#701=FACE_BOUND('',#647,.T.);
#702=FACE_BOUND('',#648,.T.);
#703=FACE_BOUND('',#649,.T.);
#704=FACE_BOUND('',#650,.T.);
#705=FACE_BOUND('',#651,.T.);
#706=FACE_BOUND('',#652,.T.);
#707=FACE_BOUND('',#653,.T.);
#708=FACE_BOUND('',#654,.T.);
#709=FACE_BOUND('',#655,.T.);
#710=FACE_BOUND('',#656,.T.);
#711=FACE_BOUND('',#657,.T.);
#712=FACE_BOUND('',#658,.T.);
#713=FACE_BOUND('',#659,.T.);
#714=FACE_BOUND('',#660,.T.);
#715=FACE_BOUND('',#661,.T.);
#716=FACE_BOUND('',#662,.T.);
#717=FACE_BOUND('',#663,.T.);
#718=FACE_BOUND('',#664,.T.);
#719=FACE_BOUND('',#665,.T.);
#720=FACE_BOUND('',#666,.T.);
#721=FACE_BOUND('',#667,.T.);
#722=FACE_BOUND('',#668,.T.);
#723=FACE_BOUND('',#669,.T.);
#724=FACE_BOUND('',#670,.T.);
#725=FACE_BOUND('',#671,.T.);
#726=FACE_BOUND('',#672,.T.);
#727=FACE_BOUND('',#673,.T.);
#728=FACE_BOUND('',#674,.T.);
#729=FACE_BOUND('',#675,.T.);
#730=FACE_BOUND('',#676,.T.);
#731=FACE_BOUND('',#677,.T.);
#732=FACE_BOUND('',#678,.T.);
#733=FACE_BOUND('',#679,.T.);
#734=FACE_BOUND('',#680,.T.);
#735=FACE_BOUND('',#681,.T.);
#736=FACE_BOUND('',#682,.T.);
#737=FACE_BOUND('',#683,.T.);
#738=FACE_BOUND('',#684,.T.);
#739=FACE_BOUND('',#685,.T.);
#740=FACE_BOUND('',#686,.T.);
#741=FACE_BOUND('',#687,.T.);
#742=PLANE('',#833);
#743=PLANE('',#834);
#744=PLANE('',#835);
#745=PLANE('',#836);
#746=PLANE('',#837);
#747=PLANE('',#838);
#748=PLANE('',#843);
#749=PLANE('',#844);
#750=PLANE('',#845);
#751=PLANE('',#846);
#752=PLANE('',#855);
#753=PLANE('',#856);
#754=PLANE('',#857);
#755=PLANE('',#858);
#756=PLANE('',#859);
#757=PLANE('',#860);
#758=PLANE('',#861);
#759=PLANE('',#862);
#760=PLANE('',#863);
#761=PLANE('',#864);
#762=PLANE('',#865);
#763=PLANE('',#866);
#764=PLANE('',#867);
#765=PLANE('',#868);
#766=PLANE('',#869);
#767=PLANE('',#870);
#768=PLANE('',#871);
#769=PLANE('',#872);
#770=PLANE('',#873);
#771=PLANE('',#874);
#772=PLANE('',#875);
#773=PLANE('',#876);
#774=PLANE('',#877);
#775=PLANE('',#878);
#776=PLANE('',#879);
#777=PLANE('',#880);
#778=PLANE('',#881);
#779=ADVANCED_FACE('',(#688),#742,.F.);
#780=ADVANCED_FACE('',(#689),#743,.F.);
#781=ADVANCED_FACE('',(#690),#744,.F.);
#782=ADVANCED_FACE('',(#691),#745,.T.);
#783=ADVANCED_FACE('',(#692),#746,.T.);
#784=ADVANCED_FACE('',(#693,#694,#695,#696,#697,#698),#747,.T.);
#785=ADVANCED_FACE('',(#699),#748,.T.);
#786=ADVANCED_FACE('',(#700),#749,.F.);
#787=ADVANCED_FACE('',(#701),#750,.F.);
#788=ADVANCED_FACE('',(#702,#703,#704,#705,#706),#751,.F.);
#789=ADVANCED_FACE('',(#707,#708),#12,.F.);
#790=ADVANCED_FACE('',(#709,#710),#13,.F.);
#791=ADVANCED_FACE('',(#711,#712),#14,.F.);
#792=ADVANCED_FACE('',(#713,#714),#15,.F.);
#793=ADVANCED_FACE('',(#715),#752,.F.);
#794=ADVANCED_FACE('',(#716),#753,.F.);
#795=ADVANCED_FACE('',(#717),#754,.T.);
#796=ADVANCED_FACE('',(#718),#755,.T.);
#797=ADVANCED_FACE('',(#719),#756,.T.);
#798=ADVANCED_FACE('',(#720),#757,.F.);
#799=ADVANCED_FACE('',(#721),#758,.F.);
#800=ADVANCED_FACE('',(#722),#759,.T.);
#801=ADVANCED_FACE('',(#723),#760,.T.);
#802=ADVANCED_FACE('',(#724),#761,.F.);
#803=ADVANCED_FACE('',(#725),#762,.T.);
#804=ADVANCED_FACE('',(#726),#763,.T.);
#805=ADVANCED_FACE('',(#727),#764,.F.);
#806=ADVANCED_FACE('',(#728),#765,.T.);
#807=ADVANCED_FACE('',(#729),#766,.F.);
#808=ADVANCED_FACE('',(#730),#767,.T.);
#809=ADVANCED_FACE('',(#731),#768,.T.);
#810=ADVANCED_FACE('',(#732),#769,.F.);
#811=ADVANCED_FACE('',(#733),#770,.F.);
#812=ADVANCED_FACE('',(#734),#771,.F.);
#813=ADVANCED_FACE('',(#735),#772,.F.);
#814=ADVANCED_FACE('',(#736),#773,.F.);
#815=ADVANCED_FACE('',(#737),#774,.F.);
#816=ADVANCED_FACE('',(#738),#775,.T.);
#817=ADVANCED_FACE('',(#739),#776,.T.);
#818=ADVANCED_FACE('',(#740),#777,.T.);
#819=ADVANCED_FACE('',(#741),#778,.T.);
#820=CLOSED_SHELL('',(#779,#780,#781,#782,#783,#784,#785,#786,#787,#788,
#789,#790,#791,#792,#793,#794,#795,#796,#797,#798,#799,#800,#801,#802,#803,
#804,#805,#806,#807,#808,#809,#810,#811,#812,#813,#814,#815,#816,#817,#818,
#819));
#821=STYLED_ITEM('',(#822),#829);
#822=PRESENTATION_STYLE_ASSIGNMENT((#823));
#823=SURFACE_STYLE_USAGE(.BOTH.,#824);
#824=SURFACE_SIDE_STYLE('',(#825));
#825=SURFACE_STYLE_FILL_AREA(#826);
#826=FILL_AREA_STYLE('',(#827));
#827=FILL_AREA_STYLE_COLOUR('',#828);
#828=COLOUR_RGB('',0.615686274509804,0.811764705882353,0.929411764705882);
#829=MANIFOLD_SOLID_BREP('CatsEyesHolder',#820);
#830=SHAPE_DEFINITION_REPRESENTATION(#1318,#831);
#831=SHAPE_REPRESENTATION('CatsEyesHolder',(#832),#1313);
#832=AXIS2_PLACEMENT_3D('',#1084,#882,#883);
#833=AXIS2_PLACEMENT_3D('',#1085,#884,#885);
#834=AXIS2_PLACEMENT_3D('',#1094,#890,#891);
#835=AXIS2_PLACEMENT_3D('',#1103,#896,#897);
#836=AXIS2_PLACEMENT_3D('',#1112,#902,#903);
#837=AXIS2_PLACEMENT_3D('',#1124,#910,#911);
#838=AXIS2_PLACEMENT_3D('',#1138,#919,#920);
#839=AXIS2_PLACEMENT_3D('',#1182,#944,#945);
#840=AXIS2_PLACEMENT_3D('',#1184,#946,#947);
#841=AXIS2_PLACEMENT_3D('',#1186,#948,#949);
#842=AXIS2_PLACEMENT_3D('',#1188,#950,#951);
#843=AXIS2_PLACEMENT_3D('',#1201,#958,#959);
#844=AXIS2_PLACEMENT_3D('',#1205,#962,#963);
#845=AXIS2_PLACEMENT_3D('',#1214,#969,#970);
#846=AXIS2_PLACEMENT_3D('',#1218,#973,#974);
#847=AXIS2_PLACEMENT_3D('',#1219,#975,#976);
#848=AXIS2_PLACEMENT_3D('',#1221,#977,#978);
#849=AXIS2_PLACEMENT_3D('',#1223,#979,#980);
#850=AXIS2_PLACEMENT_3D('',#1225,#981,#982);
#851=AXIS2_PLACEMENT_3D('',#1251,#996,#997);
#852=AXIS2_PLACEMENT_3D('',#1252,#998,#999);
#853=AXIS2_PLACEMENT_3D('',#1253,#1000,#1001);
#854=AXIS2_PLACEMENT_3D('',#1254,#1002,#1003);
#855=AXIS2_PLACEMENT_3D('',#1255,#1004,#1005);
#856=AXIS2_PLACEMENT_3D('',#1259,#1008,#1009);
#857=AXIS2_PLACEMENT_3D('',#1263,#1012,#1013);
#858=AXIS2_PLACEMENT_3D('',#1265,#1015,#1016);
#859=AXIS2_PLACEMENT_3D('',#1266,#1017,#1018);
#860=AXIS2_PLACEMENT_3D('',#1269,#1021,#1022);
#861=AXIS2_PLACEMENT_3D('',#1270,#1023,#1024);
#862=AXIS2_PLACEMENT_3D('',#1273,#1027,#1028);
#863=AXIS2_PLACEMENT_3D('',#1274,#1029,#1030);
#864=AXIS2_PLACEMENT_3D('',#1278,#1033,#1034);
#865=AXIS2_PLACEMENT_3D('',#1282,#1037,#1038);
#866=AXIS2_PLACEMENT_3D('',#1284,#1040,#1041);
#867=AXIS2_PLACEMENT_3D('',#1285,#1042,#1043);
#868=AXIS2_PLACEMENT_3D('',#1287,#1045,#1046);
#869=AXIS2_PLACEMENT_3D('',#1288,#1047,#1048);
#870=AXIS2_PLACEMENT_3D('',#1290,#1050,#1051);
#871=AXIS2_PLACEMENT_3D('',#1293,#1054,#1055);
#872=AXIS2_PLACEMENT_3D('',#1294,#1056,#1057);
#873=AXIS2_PLACEMENT_3D('',#1297,#1060,#1061);
#874=AXIS2_PLACEMENT_3D('',#1298,#1062,#1063);
#875=AXIS2_PLACEMENT_3D('',#1301,#1066,#1067);
#876=AXIS2_PLACEMENT_3D('',#1302,#1068,#1069);
#877=AXIS2_PLACEMENT_3D('',#1304,#1071,#1072);
#878=AXIS2_PLACEMENT_3D('',#1305,#1073,#1074);
#879=AXIS2_PLACEMENT_3D('',#1308,#1077,#1078);
#880=AXIS2_PLACEMENT_3D('',#1309,#1079,#1080);
#881=AXIS2_PLACEMENT_3D('',#1311,#1082,#1083);
#882=DIRECTION('',(0.,0.,1.));
#883=DIRECTION('',(1.,0.,0.));
#884=DIRECTION('',(-0.92847669088526,0.,0.371390676354103));
#885=DIRECTION('',(0.371390676354103,0.,0.92847669088526));
#886=DIRECTION('',(0.,-1.,0.));
#887=DIRECTION('',(-0.371390676354103,0.,-0.92847669088526));
#888=DIRECTION('',(0.,-1.,0.));
#889=DIRECTION('',(-0.371390676354103,0.,-0.928476690885259));
#890=DIRECTION('',(0.,0.,1.));
#891=DIRECTION('',(1.,0.,0.));
#892=DIRECTION('',(0.,-1.,0.));
#893=DIRECTION('',(1.,0.,0.));
#894=DIRECTION('',(0.,1.,0.));
#895=DIRECTION('',(1.,0.,0.));
#896=DIRECTION('',(1.63910879619856E-16,0.,-1.));
#897=DIRECTION('',(-1.,0.,-1.63910879619856E-16));
#898=DIRECTION('',(0.,-1.,0.));
#899=DIRECTION('',(1.,0.,1.63910879619856E-16));
#900=DIRECTION('',(0.,-1.,0.));
#901=DIRECTION('',(1.,0.,1.63910879619856E-16));
#902=DIRECTION('',(0.,-1.,0.));
#903=DIRECTION('',(1.,0.,0.));
#904=DIRECTION('',(0.371390676354103,0.,0.928476690885259));
#905=DIRECTION('',(-0.371390676354104,0.,0.928476690885259));
#906=DIRECTION('',(1.,0.,1.63910879619856E-16));
#907=DIRECTION('',(0.,0.,-1.));
#908=DIRECTION('',(1.,0.,1.63910879619856E-16));
#909=DIRECTION('',(0.,0.,-1.));
#910=DIRECTION('',(1.,0.,0.));
#911=DIRECTION('',(0.,0.,-1.));
#912=DIRECTION('',(0.,0.,-1.));
#913=DIRECTION('',(0.,-1.,0.));
#914=DIRECTION('',(0.,0.,-1.));
#915=DIRECTION('',(0.,0.,-1.));
#916=DIRECTION('',(0.,1.,0.));
#917=DIRECTION('',(0.,0.,-1.));
#918=DIRECTION('',(0.,-1.,0.));
#919=DIRECTION('',(0.,-1.,0.));
#920=DIRECTION('',(1.,0.,0.));
#921=DIRECTION('',(-0.371390676354104,0.,0.928476690885259));
#922=DIRECTION('',(1.,0.,0.));
#923=DIRECTION('',(-0.666550808889758,0.,0.745459602640149));
#924=DIRECTION('',(1.,0.,0.));
#925=DIRECTION('',(-0.666550808889758,0.,0.745459602640149));
#926=DIRECTION('',(1.,0.,0.));
#927=DIRECTION('',(-0.666550808889758,0.,0.745459602640149));
#928=DIRECTION('',(-1.,0.,0.));
#929=DIRECTION('',(0.,0.,-1.));
#930=DIRECTION('',(-1.,0.,0.));
#931=DIRECTION('',(1.,0.,0.));
#932=DIRECTION('',(0.,0.,-1.));
#933=DIRECTION('',(1.,0.,0.));
#934=DIRECTION('',(0.,0.,-1.));
#935=DIRECTION('',(1.,0.,0.));
#936=DIRECTION('',(0.,0.,-1.));
#937=DIRECTION('',(1.,0.,0.));
#938=DIRECTION('',(0.666550808889758,0.,0.74545960264015));
#939=DIRECTION('',(-1.,0.,0.));
#940=DIRECTION('',(0.666550808889758,0.,0.74545960264015));
#941=DIRECTION('',(-1.,0.,0.));
#942=DIRECTION('',(0.666550808889758,0.,0.74545960264015));
#943=DIRECTION('',(-1.,0.,0.));
#944=DIRECTION('',(0.,-1.,0.));
#945=DIRECTION('',(0.,0.,-1.));
#946=DIRECTION('',(0.,-1.,0.));
#947=DIRECTION('',(0.,0.,-1.));
#948=DIRECTION('',(0.,-1.,0.));
#949=DIRECTION('',(0.,0.,-1.));
#950=DIRECTION('',(0.,-1.,0.));
#951=DIRECTION('',(0.,0.,-1.));
#952=DIRECTION('',(0.,0.,-1.));
#953=DIRECTION('',(1.,0.,1.63910879619856E-16));
#954=DIRECTION('',(0.,0.,-1.));
#955=DIRECTION('',(1.,0.,1.63910879619856E-16));
#956=DIRECTION('',(0.371390676354104,0.,-0.928476690885259));
#957=DIRECTION('',(-0.371390676354103,0.,-0.928476690885259));
#958=DIRECTION('',(0.,0.,1.));
#959=DIRECTION('',(1.,0.,0.));
#960=DIRECTION('',(1.,0.,0.));
#961=DIRECTION('',(0.,1.,0.));
#962=DIRECTION('',(1.,0.,0.));
#963=DIRECTION('',(0.,0.,-1.));
#964=DIRECTION('',(0.,0.,-1.));
#965=DIRECTION('',(0.,-1.,0.));
#966=DIRECTION('',(0.,0.,-1.));
#967=DIRECTION('',(0.,1.,0.));
#968=DIRECTION('',(0.,-1.,0.));
#969=DIRECTION('',(0.,0.,1.));
#970=DIRECTION('',(1.,0.,0.));
#971=DIRECTION('',(1.,0.,0.));
#972=DIRECTION('',(0.,-1.,0.));
#973=DIRECTION('',(0.,-1.,0.));
#974=DIRECTION('',(1.,0.,0.));
#975=DIRECTION('',(0.,-1.,0.));
#976=DIRECTION('',(0.,0.,-1.));
#977=DIRECTION('',(0.,-1.,0.));
#978=DIRECTION('',(0.,0.,-1.));
#979=DIRECTION('',(0.,-1.,0.));
#980=DIRECTION('',(0.,0.,-1.));
#981=DIRECTION('',(0.,-1.,0.));
#982=DIRECTION('',(0.,0.,-1.));
#983=DIRECTION('',(0.666550808889758,0.,-0.74545960264015));
#984=DIRECTION('',(-1.,0.,0.));
#985=DIRECTION('',(0.666550808889758,0.,-0.745459602640149));
#986=DIRECTION('',(-1.,0.,0.));
#987=DIRECTION('',(0.666550808889758,0.,-0.745459602640149));
#988=DIRECTION('',(-1.,0.,0.));
#989=DIRECTION('',(-0.371390676354104,0.,0.928476690885259));
#990=DIRECTION('',(1.,0.,0.));
#991=DIRECTION('',(-0.666550808889758,0.,-0.74545960264015));
#992=DIRECTION('',(1.,0.,0.));
#993=DIRECTION('',(-0.666550808889758,0.,-0.74545960264015));
#994=DIRECTION('',(1.,0.,0.));
#995=DIRECTION('',(-0.666550808889758,0.,-0.74545960264015));
#996=DIRECTION('',(0.,-1.,0.));
#997=DIRECTION('',(0.,0.,-1.));
#998=DIRECTION('',(0.,-1.,0.));
#999=DIRECTION('',(0.,0.,-1.));
#1000=DIRECTION('',(0.,-1.,0.));
#1001=DIRECTION('',(0.,0.,-1.));
#1002=DIRECTION('',(0.,-1.,0.));
#1003=DIRECTION('',(0.,0.,-1.));
#1004=DIRECTION('',(0.,0.,1.));
#1005=DIRECTION('',(1.,0.,0.));
#1006=DIRECTION('',(0.,-1.,0.));
#1007=DIRECTION('',(-1.,0.,0.));
#1008=DIRECTION('',(-1.,0.,0.));
#1009=DIRECTION('',(0.,0.,1.));
#1010=DIRECTION('',(0.,-1.,0.));
#1011=DIRECTION('',(0.,0.,-1.));
#1012=DIRECTION('',(0.,0.,1.));
#1013=DIRECTION('',(1.,0.,0.));
#1014=DIRECTION('',(-1.,0.,0.));
#1015=DIRECTION('',(0.,-1.,0.));
#1016=DIRECTION('',(1.,0.,0.));
#1017=DIRECTION('',(1.63910879619856E-16,0.,-1.));
#1018=DIRECTION('',(-1.,0.,-1.63910879619856E-16));
#1019=DIRECTION('',(0.,-1.,0.));
#1020=DIRECTION('',(0.,-1.,0.));
#1021=DIRECTION('',(-1.,0.,0.));
#1022=DIRECTION('',(0.,0.,1.));
#1023=DIRECTION('',(1.63910879619856E-16,0.,-1.));
#1024=DIRECTION('',(-1.,0.,-1.63910879619856E-16));
#1025=DIRECTION('',(0.,-1.,0.));
#1026=DIRECTION('',(0.,-1.,0.));
#1027=DIRECTION('',(-1.,0.,0.));
#1028=DIRECTION('',(0.,0.,1.));
#1029=DIRECTION('',(0.,0.,-1.));
#1030=DIRECTION('',(-1.,0.,0.));
#1031=DIRECTION('',(1.,0.,0.));
#1032=DIRECTION('',(0.,-1.,0.));
#1033=DIRECTION('',(0.,0.,-1.));
#1034=DIRECTION('',(-1.,0.,0.));
#1035=DIRECTION('',(0.,-1.,0.));
#1036=DIRECTION('',(1.,0.,0.));
#1037=DIRECTION('',(-1.,0.,0.));
#1038=DIRECTION('',(0.,0.,1.));
#1039=DIRECTION('',(0.,0.,-1.));
#1040=DIRECTION('',(0.,-1.,0.));
#1041=DIRECTION('',(1.,0.,0.));
#1042=DIRECTION('',(-0.928476690885259,0.,-0.371390676354104));
#1043=DIRECTION('',(-0.371390676354104,0.,0.928476690885259));
#1044=DIRECTION('',(0.,-1.,0.));
#1045=DIRECTION('',(-0.928476690885259,0.,0.371390676354103));
#1046=DIRECTION('',(0.371390676354103,0.,0.928476690885259));
#1047=DIRECTION('',(0.928476690885259,0.,0.371390676354104));
#1048=DIRECTION('',(0.371390676354104,0.,-0.928476690885259));
#1049=DIRECTION('',(0.,-1.,0.));
#1050=DIRECTION('',(0.,0.,1.));
#1051=DIRECTION('',(1.,0.,0.));
#1052=DIRECTION('',(0.,-1.,0.));
#1053=DIRECTION('',(0.,-1.,0.));
#1054=DIRECTION('',(0.74545960264015,0.,-0.666550808889758));
#1055=DIRECTION('',(-0.666550808889758,0.,-0.74545960264015));
#1056=DIRECTION('',(0.,0.,-1.));
#1057=DIRECTION('',(-1.,0.,0.));
#1058=DIRECTION('',(0.,-1.,0.));
#1059=DIRECTION('',(0.,-1.,0.));
#1060=DIRECTION('',(0.745459602640149,0.,0.666550808889758));
#1061=DIRECTION('',(0.666550808889758,0.,-0.74545960264015));
#1062=DIRECTION('',(0.,0.,-1.));
#1063=DIRECTION('',(-1.,0.,0.));
#1064=DIRECTION('',(0.,-1.,0.));
#1065=DIRECTION('',(0.,-1.,0.));
#1066=DIRECTION('',(0.745459602640149,0.,0.666550808889758));
#1067=DIRECTION('',(0.666550808889758,0.,-0.745459602640149));
#1068=DIRECTION('',(0.,0.,-1.));
#1069=DIRECTION('',(-1.,0.,0.));
#1070=DIRECTION('',(0.,-1.,0.));
#1071=DIRECTION('',(0.745459602640149,0.,0.666550808889758));
#1072=DIRECTION('',(0.666550808889758,0.,-0.745459602640149));
#1073=DIRECTION('',(0.,0.,1.));
#1074=DIRECTION('',(1.,0.,0.));
#1075=DIRECTION('',(0.,-1.,0.));
#1076=DIRECTION('',(0.,-1.,0.));
#1077=DIRECTION('',(0.74545960264015,0.,-0.666550808889757));
#1078=DIRECTION('',(-0.666550808889758,0.,-0.74545960264015));
#1079=DIRECTION('',(0.,0.,1.));
#1080=DIRECTION('',(1.,0.,0.));
#1081=DIRECTION('',(0.,-1.,0.));
#1082=DIRECTION('',(0.74545960264015,0.,-0.666550808889758));
#1083=DIRECTION('',(-0.666550808889758,0.,-0.74545960264015));
#1084=CARTESIAN_POINT('',(0.,0.,0.));
#1085=CARTESIAN_POINT('',(-0.001886,0.02032,0.017415));
#1086=CARTESIAN_POINT('',(-0.0017908,2.00000000000027E-6,0.017653));
#1087=CARTESIAN_POINT('',(-0.0017908,0.,0.017653));
#1088=CARTESIAN_POINT('',(-0.0017908,-0.00508,0.017653));
#1089=CARTESIAN_POINT('',(-0.000186206896551723,0.,0.0216644827586207));
#1090=CARTESIAN_POINT('',(-1.7347234759768E-18,6.93889390390723E-18,0.02213));
#1091=CARTESIAN_POINT('',(-1.7347234759768E-18,0.02032,0.02213));
#1092=CARTESIAN_POINT('',(-1.7347234759768E-18,-0.00508,0.02213));
#1093=CARTESIAN_POINT('',(-0.001886,-0.00508,0.017415));
#1094=CARTESIAN_POINT('',(0.,-0.00508,0.0127));
#1095=CARTESIAN_POINT('',(0.003772,0.02032,0.0127));
#1096=CARTESIAN_POINT('',(0.003772,8.470329472543E-22,0.0127));
#1097=CARTESIAN_POINT('',(0.003772,-0.00508,0.0127));
#1098=CARTESIAN_POINT('',(0.,0.,0.0127));
#1099=CARTESIAN_POINT('',(0.04445,0.,0.0127));
#1100=CARTESIAN_POINT('',(0.04445,-0.00508,0.0127));
#1101=CARTESIAN_POINT('',(0.04445,-0.00508,0.0127));
#1102=CARTESIAN_POINT('',(0.,-0.00508,0.0127));
#1103=CARTESIAN_POINT('',(0.,-0.00254,0.01778));
#1104=CARTESIAN_POINT('',(-0.00254,2.00000000000027E-6,0.01778));
#1105=CARTESIAN_POINT('',(-0.00254,-0.00254,0.01778));
#1106=CARTESIAN_POINT('',(-0.00254,-0.00508,0.01778));
#1107=CARTESIAN_POINT('',(0.,-0.00254,0.01778));
#1108=CARTESIAN_POINT('',(-0.03175,-0.00254,0.01778));
#1109=CARTESIAN_POINT('',(-0.03175,-0.00254,0.01778));
#1110=CARTESIAN_POINT('',(-0.03175,-0.00508,0.01778));
#1111=CARTESIAN_POINT('',(0.,-0.00508,0.01778));
#1112=CARTESIAN_POINT('',(0.,-0.00254,0.02159));
#1113=CARTESIAN_POINT('',(-0.00127,-0.00254,0.020955));
#1114=CARTESIAN_POINT('',(-1.0842021724855E-18,-0.00254,0.02413));
#1115=CARTESIAN_POINT('',(0.00127,-0.00254,0.020955));
#1116=CARTESIAN_POINT('',(0.00254,-0.00254,0.01778));
#1117=CARTESIAN_POINT('',(0.,-0.00254,0.01778));
#1118=CARTESIAN_POINT('',(0.03175,-0.00254,0.01778));
#1119=CARTESIAN_POINT('',(0.03175,-0.00254,0.02159));
#1120=CARTESIAN_POINT('',(0.03175,-0.00254,0.0254));
#1121=CARTESIAN_POINT('',(0.,-0.00254,0.0254));
#1122=CARTESIAN_POINT('',(-0.03175,-0.00254,0.0254));
#1123=CARTESIAN_POINT('',(-0.03175,-0.00254,0.02159));
#1124=CARTESIAN_POINT('',(0.04445,-0.00508,0.02159));
#1125=CARTESIAN_POINT('',(0.04445,-0.00254,0.02159));
#1126=CARTESIAN_POINT('',(0.04445,-0.00254,0.0254));
#1127=CARTESIAN_POINT('',(0.04445,-0.00254,0.01778));
#1128=CARTESIAN_POINT('',(0.04445,-0.00254,0.01778));
#1129=CARTESIAN_POINT('',(0.04445,-0.00508,0.01778));
#1130=CARTESIAN_POINT('',(0.04445,-0.00508,0.02159));
#1131=CARTESIAN_POINT('',(0.04445,0.,0.02159));
#1132=CARTESIAN_POINT('',(0.04445,0.,0.03048));
#1133=CARTESIAN_POINT('',(0.04445,-0.00508,0.03048));
#1134=CARTESIAN_POINT('',(0.04445,-0.00508,0.03048));
#1135=CARTESIAN_POINT('',(0.04445,-0.00508,0.02159));
#1136=CARTESIAN_POINT('',(0.04445,-0.00508,0.0254));
#1137=CARTESIAN_POINT('',(0.04445,-0.00254,0.0254));
#1138=CARTESIAN_POINT('',(0.,-0.00508,0.02159));
#1139=CARTESIAN_POINT('',(0.001886,-0.00508,0.017415));
#1140=CARTESIAN_POINT('',(0.0017908,-0.00508,0.017653));
#1141=CARTESIAN_POINT('',(0.0013828812732578,-0.00508,0.017653));
#1142=CARTESIAN_POINT('',(0.000974962546515595,-0.00508,0.017653));
#1143=CARTESIAN_POINT('',(0.0017130812732578,-0.00508,0.0168275));
#1144=CARTESIAN_POINT('',(0.0024512,-0.00508,0.016002));
#1145=CARTESIAN_POINT('',(0.00204328127325779,-0.00508,0.016002));
#1146=CARTESIAN_POINT('',(0.00163536254651559,-0.00508,0.016002));
#1147=CARTESIAN_POINT('',(0.0023734812732578,-0.00508,0.0151765));
#1148=CARTESIAN_POINT('',(0.0031116,-0.00508,0.014351));
#1149=CARTESIAN_POINT('',(0.0027036812732578,-0.00508,0.014351));
#1150=CARTESIAN_POINT('',(0.00229576254651559,-0.00508,0.014351));
#1151=CARTESIAN_POINT('',(0.0030338812732578,-0.00508,0.0135255));
#1152=CARTESIAN_POINT('',(0.04191,-0.00508,0.01778));
#1153=CARTESIAN_POINT('',(0.03937,-0.00508,0.01778));
#1154=CARTESIAN_POINT('',(0.03937,-0.00508,0.02159));
#1155=CARTESIAN_POINT('',(0.03937,-0.00508,0.0254));
#1156=CARTESIAN_POINT('',(0.04191,-0.00508,0.0254));
#1157=CARTESIAN_POINT('',(0.,-0.00508,0.03048));
#1158=CARTESIAN_POINT('',(-0.04445,-0.00508,0.03048));
#1159=CARTESIAN_POINT('',(-0.04445,-0.00508,0.02159));
#1160=CARTESIAN_POINT('',(-0.04445,-0.00508,0.0254));
#1161=CARTESIAN_POINT('',(-0.04191,-0.00508,0.0254));
#1162=CARTESIAN_POINT('',(-0.03937,-0.00508,0.0254));
#1163=CARTESIAN_POINT('',(-0.03937,-0.00508,0.02159));
#1164=CARTESIAN_POINT('',(-0.03937,-0.00508,0.01778));
#1165=CARTESIAN_POINT('',(-0.04191,-0.00508,0.01778));
#1166=CARTESIAN_POINT('',(-0.04445,-0.00508,0.01778));
#1167=CARTESIAN_POINT('',(-0.04445,-0.00508,0.02159));
#1168=CARTESIAN_POINT('',(-0.04445,-0.00508,0.0127));
#1169=CARTESIAN_POINT('',(0.,-0.00508,0.0127));
#1170=CARTESIAN_POINT('',(-0.003772,-0.00508,0.0127));
#1171=CARTESIAN_POINT('',(-0.0030338812732578,-0.00508,0.0135255));
#1172=CARTESIAN_POINT('',(-0.00229576254651559,-0.00508,0.014351));
#1173=CARTESIAN_POINT('',(-0.0027036812732578,-0.00508,0.014351));
#1174=CARTESIAN_POINT('',(-0.0031116,-0.00508,0.014351));
#1175=CARTESIAN_POINT('',(-0.0023734812732578,-0.00508,0.0151765));
#1176=CARTESIAN_POINT('',(-0.00163536254651559,-0.00508,0.016002));
#1177=CARTESIAN_POINT('',(-0.00204328127325779,-0.00508,0.016002));
#1178=CARTESIAN_POINT('',(-0.0024512,-0.00508,0.016002));
#1179=CARTESIAN_POINT('',(-0.0017130812732578,-0.00508,0.0168275));
#1180=CARTESIAN_POINT('',(-0.000974962546515595,-0.00508,0.017653));
#1181=CARTESIAN_POINT('',(-0.0013828812732578,-0.00508,0.017653));
#1182=CARTESIAN_POINT('',(-0.03556,-0.00508,0.01778));
#1183=CARTESIAN_POINT('',(-0.03556,-0.00508,0.01693));
#1184=CARTESIAN_POINT('',(0.03556,-0.00508,0.0254));
#1185=CARTESIAN_POINT('',(0.03556,-0.00508,0.02455));
#1186=CARTESIAN_POINT('',(0.03556,-0.00508,0.01778));
#1187=CARTESIAN_POINT('',(0.03556,-0.00508,0.01693));
#1188=CARTESIAN_POINT('',(-0.03556,-0.00508,0.0254));
#1189=CARTESIAN_POINT('',(-0.03556,-0.00508,0.02455));
#1190=CARTESIAN_POINT('',(-0.03175,-0.00508,0.02159));
#1191=CARTESIAN_POINT('',(-0.03175,-0.00508,0.0254));
#1192=CARTESIAN_POINT('',(0.,-0.00508,0.0254));
#1193=CARTESIAN_POINT('',(0.03175,-0.00508,0.0254));
#1194=CARTESIAN_POINT('',(0.03175,-0.00508,0.02159));
#1195=CARTESIAN_POINT('',(0.03175,-0.00508,0.01778));
#1196=CARTESIAN_POINT('',(0.,-0.00508,0.01778));
#1197=CARTESIAN_POINT('',(0.00254,-0.00508,0.01778));
#1198=CARTESIAN_POINT('',(0.00127,-0.00508,0.020955));
#1199=CARTESIAN_POINT('',(-1.0842021724855E-18,-0.00508,0.02413));
#1200=CARTESIAN_POINT('',(-0.00127,-0.00508,0.020955));
#1201=CARTESIAN_POINT('',(0.,-0.00508,0.03048));
#1202=CARTESIAN_POINT('',(0.,0.,0.03048));
#1203=CARTESIAN_POINT('',(-0.04445,0.,0.03048));
#1204=CARTESIAN_POINT('',(-0.04445,-0.00508,0.03048));
#1205=CARTESIAN_POINT('',(-0.04445,-0.00508,0.02159));
#1206=CARTESIAN_POINT('',(-0.04445,-0.00254,0.02159));
#1207=CARTESIAN_POINT('',(-0.04445,-0.00254,0.0254));
#1208=CARTESIAN_POINT('',(-0.04445,-0.00254,0.01778));
#1209=CARTESIAN_POINT('',(-0.04445,-0.00254,0.0254));
#1210=CARTESIAN_POINT('',(-0.04445,0.,0.02159));
#1211=CARTESIAN_POINT('',(-0.04445,0.,0.0127));
#1212=CARTESIAN_POINT('',(-0.04445,-0.00508,0.0127));
#1213=CARTESIAN_POINT('',(-0.04445,-0.00254,0.01778));
#1214=CARTESIAN_POINT('',(0.,-0.00508,0.0127));
#1215=CARTESIAN_POINT('',(0.,0.,0.0127));
#1216=CARTESIAN_POINT('',(-0.003772,0.,0.0127));
#1217=CARTESIAN_POINT('',(-0.003772,0.02032,0.0127));
#1218=CARTESIAN_POINT('',(0.,0.,0.02159));
#1219=CARTESIAN_POINT('',(-0.03556,0.,0.01778));
#1220=CARTESIAN_POINT('',(-0.03556,0.,0.01693));
#1221=CARTESIAN_POINT('',(0.03556,0.,0.0254));
#1222=CARTESIAN_POINT('',(0.03556,0.,0.02455));
#1223=CARTESIAN_POINT('',(0.03556,0.,0.01778));
#1224=CARTESIAN_POINT('',(0.03556,0.,0.01693));
#1225=CARTESIAN_POINT('',(-0.03556,0.,0.0254));
#1226=CARTESIAN_POINT('',(-0.03556,0.,0.02455));
#1227=CARTESIAN_POINT('',(0.0030338812732578,0.,0.0135255));
#1228=CARTESIAN_POINT('',(0.00229576254651559,8.470329472543E-22,0.014351));
#1229=CARTESIAN_POINT('',(0.0027036812732578,0.,0.014351));
#1230=CARTESIAN_POINT('',(0.0031116,8.470329472543E-22,0.014351));
#1231=CARTESIAN_POINT('',(0.0023734812732578,0.,0.0151765));
#1232=CARTESIAN_POINT('',(0.00163536254651559,8.470329472543E-22,0.016002));
#1233=CARTESIAN_POINT('',(0.00204328127325779,0.,0.016002));
#1234=CARTESIAN_POINT('',(0.0024512,8.470329472543E-22,0.016002));
#1235=CARTESIAN_POINT('',(0.0017130812732578,0.,0.0168275));
#1236=CARTESIAN_POINT('',(0.000974962546515595,8.470329472543E-22,0.017653));
#1237=CARTESIAN_POINT('',(0.0013828812732578,0.,0.017653));
#1238=CARTESIAN_POINT('',(0.0017908,8.470329472543E-22,0.017653));
#1239=CARTESIAN_POINT('',(0.000186206896551721,0.,0.0216644827586207));
#1240=CARTESIAN_POINT('',(-0.0013828812732578,0.,0.017653));
#1241=CARTESIAN_POINT('',(-0.000974962546515595,8.470329472543E-22,0.017653));
#1242=CARTESIAN_POINT('',(-0.0017130812732578,0.,0.0168275));
#1243=CARTESIAN_POINT('',(-0.0024512,0.,0.016002));
#1244=CARTESIAN_POINT('',(-0.00204328127325779,0.,0.016002));
#1245=CARTESIAN_POINT('',(-0.00163536254651559,8.470329472543E-22,0.016002));
#1246=CARTESIAN_POINT('',(-0.0023734812732578,0.,0.0151765));
#1247=CARTESIAN_POINT('',(-0.0031116,0.,0.014351));
#1248=CARTESIAN_POINT('',(-0.0027036812732578,0.,0.014351));
#1249=CARTESIAN_POINT('',(-0.00229576254651559,8.470329472543E-22,0.014351));
#1250=CARTESIAN_POINT('',(-0.0030338812732578,0.,0.0135255));
#1251=CARTESIAN_POINT('',(-0.03556,0.02032,0.0254));
#1252=CARTESIAN_POINT('',(0.03556,0.02032,0.01778));
#1253=CARTESIAN_POINT('',(0.03556,0.02032,0.0254));
#1254=CARTESIAN_POINT('',(-0.03556,0.02032,0.01778));
#1255=CARTESIAN_POINT('',(0.04191,-0.00254,0.0254));
#1256=CARTESIAN_POINT('',(0.03937,-0.00254,0.0254));
#1257=CARTESIAN_POINT('',(0.03937,-0.00254,0.0254));
#1258=CARTESIAN_POINT('',(0.04191,-0.00254,0.0254));
#1259=CARTESIAN_POINT('',(0.03937,-0.00254,0.02159));
#1260=CARTESIAN_POINT('',(0.03937,-0.00254,0.01778));
#1261=CARTESIAN_POINT('',(0.03937,-0.00254,0.01778));
#1262=CARTESIAN_POINT('',(0.03937,-0.00254,0.02159));
#1263=CARTESIAN_POINT('',(0.04191,-0.00254,0.01778));
#1264=CARTESIAN_POINT('',(0.04191,-0.00254,0.01778));
#1265=CARTESIAN_POINT('',(0.,-0.00254,0.02159));
#1266=CARTESIAN_POINT('',(0.,-0.00254,0.0254));
#1267=CARTESIAN_POINT('',(-0.03175,-0.00254,0.0254));
#1268=CARTESIAN_POINT('',(0.03175,-0.00254,0.0254));
#1269=CARTESIAN_POINT('',(-0.03175,-0.00254,0.02159));
#1270=CARTESIAN_POINT('',(0.,-0.00254,0.01778));
#1271=CARTESIAN_POINT('',(0.00254,2.00000000000027E-6,0.01778));
#1272=CARTESIAN_POINT('',(0.03175,-0.00254,0.01778));
#1273=CARTESIAN_POINT('',(0.03175,-0.00254,0.02159));
#1274=CARTESIAN_POINT('',(-0.04191,-0.00254,0.0254));
#1275=CARTESIAN_POINT('',(-0.04191,-0.00254,0.0254));
#1276=CARTESIAN_POINT('',(-0.03937,-0.00254,0.0254));
#1277=CARTESIAN_POINT('',(-0.03937,-0.00254,0.0254));
#1278=CARTESIAN_POINT('',(-0.04191,-0.00254,0.01778));
#1279=CARTESIAN_POINT('',(-0.03937,-0.00254,0.01778));
#1280=CARTESIAN_POINT('',(-0.03937,-0.00254,0.01778));
#1281=CARTESIAN_POINT('',(-0.04191,-0.00254,0.01778));
#1282=CARTESIAN_POINT('',(-0.03937,-0.00254,0.02159));
#1283=CARTESIAN_POINT('',(-0.03937,-0.00254,0.02159));
#1284=CARTESIAN_POINT('',(0.,-0.00254,0.02159));
#1285=CARTESIAN_POINT('',(0.00127,2.00000000000027E-6,0.020955));
#1286=CARTESIAN_POINT('',(-1.0842021724855E-18,2.00000000000027E-6,0.02413));
#1287=CARTESIAN_POINT('',(-0.00127,2.00000000000027E-6,0.020955));
#1288=CARTESIAN_POINT('',(0.001886,0.02032,0.017415));
#1289=CARTESIAN_POINT('',(0.0017908,2.00000000000027E-6,0.017653));
#1290=CARTESIAN_POINT('',(-0.0027036812732578,2.00000000000027E-6,0.014351));
#1291=CARTESIAN_POINT('',(-0.0031116,2.00000000000027E-6,0.014351));
#1292=CARTESIAN_POINT('',(-0.00229576254651559,2.00000000000027E-6,0.014351));
#1293=CARTESIAN_POINT('',(-0.0030338812732578,2.00000000000027E-6,0.0135255));
#1294=CARTESIAN_POINT('',(0.0027036812732578,2.00000000000027E-6,0.014351));
#1295=CARTESIAN_POINT('',(0.0031116,2.00000000000027E-6,0.014351));
#1296=CARTESIAN_POINT('',(0.00229576254651559,2.00000000000027E-6,0.014351));
#1297=CARTESIAN_POINT('',(0.0030338812732578,2.00000000000027E-6,0.0135255));
#1298=CARTESIAN_POINT('',(0.00204328127325779,2.00000000000027E-6,0.016002));
#1299=CARTESIAN_POINT('',(0.0024512,2.00000000000027E-6,0.016002));
#1300=CARTESIAN_POINT('',(0.00163536254651559,2.00000000000027E-6,0.016002));
#1301=CARTESIAN_POINT('',(0.0023734812732578,2.00000000000027E-6,0.0151765));
#1302=CARTESIAN_POINT('',(0.0013828812732578,2.00000000000027E-6,0.017653));
#1303=CARTESIAN_POINT('',(0.000974962546515595,2.00000000000027E-6,0.017653));
#1304=CARTESIAN_POINT('',(0.0017130812732578,2.00000000000027E-6,0.0168275));
#1305=CARTESIAN_POINT('',(-0.00204328127325779,2.00000000000027E-6,0.016002));
#1306=CARTESIAN_POINT('',(-0.0024512,2.00000000000027E-6,0.016002));
#1307=CARTESIAN_POINT('',(-0.00163536254651559,2.00000000000027E-6,0.016002));
#1308=CARTESIAN_POINT('',(-0.0023734812732578,2.00000000000027E-6,0.0151765));
#1309=CARTESIAN_POINT('',(-0.0013828812732578,2.00000000000027E-6,0.017653));
#1310=CARTESIAN_POINT('',(-0.000974962546515595,2.00000000000027E-6,0.017653));
#1311=CARTESIAN_POINT('',(-0.0017130812732578,2.00000000000027E-6,0.0168275));
#1312=MECHANICAL_DESIGN_GEOMETRIC_PRESENTATION_REPRESENTATION('',(#821),
#1313);
#1313=(
GEOMETRIC_REPRESENTATION_CONTEXT(3)
GLOBAL_UNCERTAINTY_ASSIGNED_CONTEXT((#1314))
GLOBAL_UNIT_ASSIGNED_CONTEXT((#1317,#1316,#1315))
REPRESENTATION_CONTEXT('CatsEyesHolder','TOP_LEVEL_ASSEMBLY_PART')
);
#1314=UNCERTAINTY_MEASURE_WITH_UNIT(LENGTH_MEASURE(1.E-8),#1317,
'DISTANCE_ACCURACY_VALUE','Maximum Tolerance applied to model');
#1315=(
NAMED_UNIT(*)
SI_UNIT($,.STERADIAN.)
SOLID_ANGLE_UNIT()
);
#1316=(
NAMED_UNIT(*)
PLANE_ANGLE_UNIT()
SI_UNIT($,.RADIAN.)
);
#1317=(
LENGTH_UNIT()
NAMED_UNIT(*)
SI_UNIT($,.METRE.)
);
#1318=PRODUCT_DEFINITION_SHAPE('','',#1319);
#1319=PRODUCT_DEFINITION('','',#1321,#1320);
#1320=PRODUCT_DEFINITION_CONTEXT('',#1327,'design');
#1321=PRODUCT_DEFINITION_FORMATION_WITH_SPECIFIED_SOURCE('','',#1323,
 .NOT_KNOWN.);
#1322=PRODUCT_RELATED_PRODUCT_CATEGORY('','',(#1323));
#1323=PRODUCT('CatsEyesHolder','CatsEyesHolder','CatsEyesHolder',(#1325));
#1324=PRODUCT_CATEGORY('','');
#1325=PRODUCT_CONTEXT('',#1327,'mechanical');
#1326=APPLICATION_PROTOCOL_DEFINITION('international standard',
'ap242_managed_model_based_3d_engineering',2020,#1327);
#1327=APPLICATION_CONTEXT('managed model based 3d engineering');
ENDSEC;
END-ISO-10303-21;
