ISO-10303-21;
HEADER;
/* Generated by software containing ST-Developer
 * from STEP Tools, Inc. (www.steptools.com) 
 */
/* OPTION: using custom renumber hook */

FILE_DESCRIPTION(
/* description */ ('STEP AP242 Edition 2',
'CAx-IF Rec.Pracs.---Representation and Presentation of Product Manufa
cturing Information (PMI)---4.0---2014-10-13',
'CAx-IF Rec.Pracs.---3D Tessellated Geometry---0.4---2014-09-14','2;1',
'CAx-IF Rec.Pracs.---User Defined Attributes---1.5---2016-08-15'),
/* implementation_level */ '2;1');

FILE_NAME(
/* name */ 'CatsEyesHolder - CatsEyesHolder',
/* time_stamp */ '2026-09-30T06:59:34Z',
/* author */ (''),
/* organization */ (''),
/* preprocessor_version */ 'ST-DEVELOPER v20',
/* originating_system */ 'ONSHAPE BY PTC INC, 1.221',
/* authorisation */ '  ');

FILE_SCHEMA (('AP242_MANAGED_MODEL_BASED_3D_ENGINEERING_MIM_LF { 1 0 10303 442 3 1 4 }'));
ENDSEC;

DATA;
#10=SHAPE_REPRESENTATION_RELATIONSHIP('','',#999,#11);
#11=ADVANCED_BREP_SHAPE_REPRESENTATION('',(#997),#1577);
#12=CYLINDRICAL_SURFACE('',#1021,0.00085);
#13=CYLINDRICAL_SURFACE('',#1022,0.00085);
#14=CYLINDRICAL_SURFACE('',#1023,0.00085);
#15=CYLINDRICAL_SURFACE('',#1024,0.00085);
#16=CIRCLE('',#1005,0.00085);
#17=CIRCLE('',#1006,0.00085);
#18=CIRCLE('',#1007,0.00085);
#19=CIRCLE('',#1008,0.00085);
#20=CIRCLE('',#1017,0.00085);
#21=CIRCLE('',#1018,0.00085);
#22=CIRCLE('',#1019,0.00085);
#23=CIRCLE('',#1020,0.00085);
#24=ORIENTED_EDGE('',*,*,#292,.T.);
#25=ORIENTED_EDGE('',*,*,#293,.T.);
#26=ORIENTED_EDGE('',*,*,#294,.T.);
#27=ORIENTED_EDGE('',*,*,#295,.T.);
#28=ORIENTED_EDGE('',*,*,#296,.F.);
#29=ORIENTED_EDGE('',*,*,#297,.F.);
#30=ORIENTED_EDGE('',*,*,#298,.T.);
#31=ORIENTED_EDGE('',*,*,#299,.F.);
#32=ORIENTED_EDGE('',*,*,#300,.T.);
#33=ORIENTED_EDGE('',*,*,#301,.T.);
#34=ORIENTED_EDGE('',*,*,#302,.F.);
#35=ORIENTED_EDGE('',*,*,#303,.F.);
#36=ORIENTED_EDGE('',*,*,#304,.F.);
#37=ORIENTED_EDGE('',*,*,#305,.F.);
#38=ORIENTED_EDGE('',*,*,#306,.T.);
#39=ORIENTED_EDGE('',*,*,#307,.T.);
#40=ORIENTED_EDGE('',*,*,#308,.F.);
#41=ORIENTED_EDGE('',*,*,#309,.F.);
#42=ORIENTED_EDGE('',*,*,#310,.F.);
#43=ORIENTED_EDGE('',*,*,#311,.F.);
#44=ORIENTED_EDGE('',*,*,#312,.T.);
#45=ORIENTED_EDGE('',*,*,#313,.T.);
#46=ORIENTED_EDGE('',*,*,#314,.T.);
#47=ORIENTED_EDGE('',*,*,#315,.T.);
#48=ORIENTED_EDGE('',*,*,#316,.T.);
#49=ORIENTED_EDGE('',*,*,#317,.T.);
#50=ORIENTED_EDGE('',*,*,#318,.T.);
#51=ORIENTED_EDGE('',*,*,#319,.T.);
#52=ORIENTED_EDGE('',*,*,#320,.T.);
#53=ORIENTED_EDGE('',*,*,#321,.T.);
#54=ORIENTED_EDGE('',*,*,#322,.F.);
#55=ORIENTED_EDGE('',*,*,#323,.F.);
#56=ORIENTED_EDGE('',*,*,#324,.F.);
#57=ORIENTED_EDGE('',*,*,#325,.F.);
#58=ORIENTED_EDGE('',*,*,#326,.F.);
#59=ORIENTED_EDGE('',*,*,#327,.F.);
#60=ORIENTED_EDGE('',*,*,#328,.F.);
#61=ORIENTED_EDGE('',*,*,#329,.F.);
#62=ORIENTED_EDGE('',*,*,#330,.T.);
#63=ORIENTED_EDGE('',*,*,#294,.F.);
#64=ORIENTED_EDGE('',*,*,#331,.F.);
#65=ORIENTED_EDGE('',*,*,#332,.F.);
#66=ORIENTED_EDGE('',*,*,#333,.T.);
#67=ORIENTED_EDGE('',*,*,#298,.F.);
#68=ORIENTED_EDGE('',*,*,#334,.F.);
#69=ORIENTED_EDGE('',*,*,#335,.T.);
#70=ORIENTED_EDGE('',*,*,#336,.F.);
#71=ORIENTED_EDGE('',*,*,#337,.F.);
#72=ORIENTED_EDGE('',*,*,#338,.T.);
#73=ORIENTED_EDGE('',*,*,#339,.T.);
#74=ORIENTED_EDGE('',*,*,#340,.F.);
#75=ORIENTED_EDGE('',*,*,#307,.F.);
#76=ORIENTED_EDGE('',*,*,#341,.F.);
#77=ORIENTED_EDGE('',*,*,#342,.T.);
#78=ORIENTED_EDGE('',*,*,#343,.F.);
#79=ORIENTED_EDGE('',*,*,#344,.T.);
#80=ORIENTED_EDGE('',*,*,#345,.F.);
#81=ORIENTED_EDGE('',*,*,#346,.F.);
#82=ORIENTED_EDGE('',*,*,#347,.T.);
#83=ORIENTED_EDGE('',*,*,#348,.T.);
#84=ORIENTED_EDGE('',*,*,#302,.T.);
#85=ORIENTED_EDGE('',*,*,#349,.F.);
#86=ORIENTED_EDGE('',*,*,#350,.F.);
#87=ORIENTED_EDGE('',*,*,#351,.F.);
#88=ORIENTED_EDGE('',*,*,#352,.T.);
#89=ORIENTED_EDGE('',*,*,#322,.T.);
#90=ORIENTED_EDGE('',*,*,#353,.F.);
#91=ORIENTED_EDGE('',*,*,#354,.T.);
#92=ORIENTED_EDGE('',*,*,#295,.F.);
#93=ORIENTED_EDGE('',*,*,#330,.F.);
#94=ORIENTED_EDGE('',*,*,#355,.F.);
#95=ORIENTED_EDGE('',*,*,#356,.T.);
#96=ORIENTED_EDGE('',*,*,#343,.T.);
#97=ORIENTED_EDGE('',*,*,#357,.F.);
#98=ORIENTED_EDGE('',*,*,#358,.T.);
#99=ORIENTED_EDGE('',*,*,#359,.F.);
#100=ORIENTED_EDGE('',*,*,#360,.T.);
#101=ORIENTED_EDGE('',*,*,#355,.T.);
#102=ORIENTED_EDGE('',*,*,#361,.T.);
#103=ORIENTED_EDGE('',*,*,#362,.F.);
#104=ORIENTED_EDGE('',*,*,#305,.T.);
#105=ORIENTED_EDGE('',*,*,#363,.F.);
#106=ORIENTED_EDGE('',*,*,#364,.T.);
#107=ORIENTED_EDGE('',*,*,#365,.F.);
#108=ORIENTED_EDGE('',*,*,#366,.F.);
#109=ORIENTED_EDGE('',*,*,#367,.F.);
#110=ORIENTED_EDGE('',*,*,#300,.F.);
#111=ORIENTED_EDGE('',*,*,#368,.T.);
#112=ORIENTED_EDGE('',*,*,#369,.T.);
#113=ORIENTED_EDGE('',*,*,#370,.F.);
#114=ORIENTED_EDGE('',*,*,#371,.F.);
#115=ORIENTED_EDGE('',*,*,#334,.T.);
#116=ORIENTED_EDGE('',*,*,#297,.T.);
#117=ORIENTED_EDGE('',*,*,#372,.F.);
#118=ORIENTED_EDGE('',*,*,#373,.F.);
#119=ORIENTED_EDGE('',*,*,#374,.T.);
#120=ORIENTED_EDGE('',*,*,#335,.F.);
#121=ORIENTED_EDGE('',*,*,#371,.T.);
#122=ORIENTED_EDGE('',*,*,#375,.T.);
#123=ORIENTED_EDGE('',*,*,#376,.F.);
#124=ORIENTED_EDGE('',*,*,#314,.F.);
#125=ORIENTED_EDGE('',*,*,#377,.T.);
#126=ORIENTED_EDGE('',*,*,#378,.T.);
#127=ORIENTED_EDGE('',*,*,#315,.F.);
#128=ORIENTED_EDGE('',*,*,#376,.T.);
#129=ORIENTED_EDGE('',*,*,#379,.T.);
#130=ORIENTED_EDGE('',*,*,#380,.T.);
#131=ORIENTED_EDGE('',*,*,#381,.T.);
#132=ORIENTED_EDGE('',*,*,#382,.T.);
#133=ORIENTED_EDGE('',*,*,#354,.F.);
#134=ORIENTED_EDGE('',*,*,#383,.F.);
#135=ORIENTED_EDGE('',*,*,#384,.F.);
#136=ORIENTED_EDGE('',*,*,#385,.F.);
#137=ORIENTED_EDGE('',*,*,#386,.F.);
#138=ORIENTED_EDGE('',*,*,#387,.F.);
#139=ORIENTED_EDGE('',*,*,#388,.F.);
#140=ORIENTED_EDGE('',*,*,#389,.T.);
#141=ORIENTED_EDGE('',*,*,#351,.T.);
#142=ORIENTED_EDGE('',*,*,#390,.T.);
#143=ORIENTED_EDGE('',*,*,#391,.T.);
#144=ORIENTED_EDGE('',*,*,#392,.T.);
#145=ORIENTED_EDGE('',*,*,#393,.T.);
#146=ORIENTED_EDGE('',*,*,#394,.T.);
#147=ORIENTED_EDGE('',*,*,#395,.T.);
#148=ORIENTED_EDGE('',*,*,#377,.F.);
#149=ORIENTED_EDGE('',*,*,#375,.F.);
#150=ORIENTED_EDGE('',*,*,#370,.T.);
#151=ORIENTED_EDGE('',*,*,#296,.T.);
#152=ORIENTED_EDGE('',*,*,#311,.T.);
#153=ORIENTED_EDGE('',*,*,#382,.F.);
#154=ORIENTED_EDGE('',*,*,#310,.T.);
#155=ORIENTED_EDGE('',*,*,#381,.F.);
#156=ORIENTED_EDGE('',*,*,#309,.T.);
#157=ORIENTED_EDGE('',*,*,#380,.F.);
#158=ORIENTED_EDGE('',*,*,#308,.T.);
#159=ORIENTED_EDGE('',*,*,#379,.F.);
#160=ORIENTED_EDGE('',*,*,#332,.T.);
#161=ORIENTED_EDGE('',*,*,#396,.F.);
#162=ORIENTED_EDGE('',*,*,#397,.F.);
#163=ORIENTED_EDGE('',*,*,#398,.T.);
#164=ORIENTED_EDGE('',*,*,#292,.F.);
#165=ORIENTED_EDGE('',*,*,#399,.T.);
#166=ORIENTED_EDGE('',*,*,#397,.T.);
#167=ORIENTED_EDGE('',*,*,#400,.F.);
#168=ORIENTED_EDGE('',*,*,#346,.T.);
#169=ORIENTED_EDGE('',*,*,#401,.F.);
#170=ORIENTED_EDGE('',*,*,#358,.F.);
#171=ORIENTED_EDGE('',*,*,#402,.T.);
#172=ORIENTED_EDGE('',*,*,#338,.F.);
#173=ORIENTED_EDGE('',*,*,#403,.F.);
#174=ORIENTED_EDGE('',*,*,#365,.T.);
#175=ORIENTED_EDGE('',*,*,#404,.T.);
#176=ORIENTED_EDGE('',*,*,#312,.F.);
#177=ORIENTED_EDGE('',*,*,#405,.F.);
#178=ORIENTED_EDGE('',*,*,#406,.T.);
#179=ORIENTED_EDGE('',*,*,#407,.T.);
#180=ORIENTED_EDGE('',*,*,#406,.F.);
#181=ORIENTED_EDGE('',*,*,#408,.F.);
#182=ORIENTED_EDGE('',*,*,#373,.T.);
#183=ORIENTED_EDGE('',*,*,#409,.T.);
#184=ORIENTED_EDGE('',*,*,#306,.F.);
#185=ORIENTED_EDGE('',*,*,#362,.T.);
#186=ORIENTED_EDGE('',*,*,#410,.T.);
#187=ORIENTED_EDGE('',*,*,#341,.T.);
#188=ORIENTED_EDGE('',*,*,#361,.F.);
#189=ORIENTED_EDGE('',*,*,#357,.T.);
#190=ORIENTED_EDGE('',*,*,#342,.F.);
#191=ORIENTED_EDGE('',*,*,#410,.F.);
#192=ORIENTED_EDGE('',*,*,#389,.F.);
#193=ORIENTED_EDGE('',*,*,#411,.T.);
#194=ORIENTED_EDGE('',*,*,#323,.T.);
#195=ORIENTED_EDGE('',*,*,#352,.F.);
#196=ORIENTED_EDGE('',*,*,#394,.F.);
#197=ORIENTED_EDGE('',*,*,#412,.T.);
#198=ORIENTED_EDGE('',*,*,#317,.F.);
#199=ORIENTED_EDGE('',*,*,#413,.F.);
#200=ORIENTED_EDGE('',*,*,#395,.F.);
#201=ORIENTED_EDGE('',*,*,#413,.T.);
#202=ORIENTED_EDGE('',*,*,#316,.F.);
#203=ORIENTED_EDGE('',*,*,#378,.F.);
#204=ORIENTED_EDGE('',*,*,#414,.F.);
#205=ORIENTED_EDGE('',*,*,#384,.T.);
#206=ORIENTED_EDGE('',*,*,#415,.T.);
#207=ORIENTED_EDGE('',*,*,#328,.T.);
#208=ORIENTED_EDGE('',*,*,#415,.F.);
#209=ORIENTED_EDGE('',*,*,#383,.T.);
#210=ORIENTED_EDGE('',*,*,#353,.T.);
#211=ORIENTED_EDGE('',*,*,#329,.T.);
#212=ORIENTED_EDGE('',*,*,#416,.F.);
#213=ORIENTED_EDGE('',*,*,#386,.T.);
#214=ORIENTED_EDGE('',*,*,#417,.T.);
#215=ORIENTED_EDGE('',*,*,#326,.T.);
#216=ORIENTED_EDGE('',*,*,#417,.F.);
#217=ORIENTED_EDGE('',*,*,#385,.T.);
#218=ORIENTED_EDGE('',*,*,#414,.T.);
#219=ORIENTED_EDGE('',*,*,#327,.T.);
#220=ORIENTED_EDGE('',*,*,#411,.F.);
#221=ORIENTED_EDGE('',*,*,#388,.T.);
#222=ORIENTED_EDGE('',*,*,#418,.T.);
#223=ORIENTED_EDGE('',*,*,#324,.T.);
#224=ORIENTED_EDGE('',*,*,#418,.F.);
#225=ORIENTED_EDGE('',*,*,#387,.T.);
#226=ORIENTED_EDGE('',*,*,#416,.T.);
#227=ORIENTED_EDGE('',*,*,#325,.T.);
#228=ORIENTED_EDGE('',*,*,#392,.F.);
#229=ORIENTED_EDGE('',*,*,#419,.T.);
#230=ORIENTED_EDGE('',*,*,#319,.F.);
#231=ORIENTED_EDGE('',*,*,#420,.F.);
#232=ORIENTED_EDGE('',*,*,#393,.F.);
#233=ORIENTED_EDGE('',*,*,#420,.T.);
#234=ORIENTED_EDGE('',*,*,#318,.F.);
#235=ORIENTED_EDGE('',*,*,#412,.F.);
#236=ORIENTED_EDGE('',*,*,#390,.F.);
#237=ORIENTED_EDGE('',*,*,#350,.T.);
#238=ORIENTED_EDGE('',*,*,#321,.F.);
#239=ORIENTED_EDGE('',*,*,#421,.F.);
#240=ORIENTED_EDGE('',*,*,#391,.F.);
#241=ORIENTED_EDGE('',*,*,#421,.T.);
#242=ORIENTED_EDGE('',*,*,#320,.F.);
#243=ORIENTED_EDGE('',*,*,#419,.F.);
#244=ORIENTED_EDGE('',*,*,#422,.T.);
#245=ORIENTED_EDGE('',*,*,#339,.F.);
#246=ORIENTED_EDGE('',*,*,#404,.F.);
#247=ORIENTED_EDGE('',*,*,#364,.F.);
#248=ORIENTED_EDGE('',*,*,#363,.T.);
#249=ORIENTED_EDGE('',*,*,#304,.T.);
#250=ORIENTED_EDGE('',*,*,#340,.T.);
#251=ORIENTED_EDGE('',*,*,#422,.F.);
#252=ORIENTED_EDGE('',*,*,#303,.T.);
#253=ORIENTED_EDGE('',*,*,#348,.F.);
#254=ORIENTED_EDGE('',*,*,#423,.F.);
#255=ORIENTED_EDGE('',*,*,#368,.F.);
#256=ORIENTED_EDGE('',*,*,#423,.T.);
#257=ORIENTED_EDGE('',*,*,#347,.F.);
#258=ORIENTED_EDGE('',*,*,#402,.F.);
#259=ORIENTED_EDGE('',*,*,#369,.F.);
#260=ORIENTED_EDGE('',*,*,#424,.T.);
#261=ORIENTED_EDGE('',*,*,#344,.F.);
#262=ORIENTED_EDGE('',*,*,#356,.F.);
#263=ORIENTED_EDGE('',*,*,#360,.F.);
#264=ORIENTED_EDGE('',*,*,#359,.T.);
#265=ORIENTED_EDGE('',*,*,#401,.T.);
#266=ORIENTED_EDGE('',*,*,#345,.T.);
#267=ORIENTED_EDGE('',*,*,#424,.F.);
#268=ORIENTED_EDGE('',*,*,#367,.T.);
#269=ORIENTED_EDGE('',*,*,#425,.T.);
#270=ORIENTED_EDGE('',*,*,#349,.T.);
#271=ORIENTED_EDGE('',*,*,#301,.F.);
#272=ORIENTED_EDGE('',*,*,#366,.T.);
#273=ORIENTED_EDGE('',*,*,#403,.T.);
#274=ORIENTED_EDGE('',*,*,#337,.T.);
#275=ORIENTED_EDGE('',*,*,#425,.F.);
#276=ORIENTED_EDGE('',*,*,#408,.T.);
#277=ORIENTED_EDGE('',*,*,#405,.T.);
#278=ORIENTED_EDGE('',*,*,#336,.T.);
#279=ORIENTED_EDGE('',*,*,#374,.F.);
#280=ORIENTED_EDGE('',*,*,#372,.T.);
#281=ORIENTED_EDGE('',*,*,#313,.F.);
#282=ORIENTED_EDGE('',*,*,#407,.F.);
#283=ORIENTED_EDGE('',*,*,#409,.F.);
#284=ORIENTED_EDGE('',*,*,#299,.T.);
#285=ORIENTED_EDGE('',*,*,#333,.F.);
#286=ORIENTED_EDGE('',*,*,#398,.F.);
#287=ORIENTED_EDGE('',*,*,#399,.F.);
#288=ORIENTED_EDGE('',*,*,#400,.T.);
#289=ORIENTED_EDGE('',*,*,#396,.T.);
#290=ORIENTED_EDGE('',*,*,#331,.T.);
#291=ORIENTED_EDGE('',*,*,#293,.F.);
#292=EDGE_CURVE('',#426,#427,#518,.T.);
#293=EDGE_CURVE('',#427,#428,#519,.T.);
#294=EDGE_CURVE('',#428,#429,#520,.T.);
#295=EDGE_CURVE('',#429,#430,#521,.T.);
#296=EDGE_CURVE('',#431,#430,#522,.T.);
#297=EDGE_CURVE('',#432,#431,#523,.T.);
#298=EDGE_CURVE('',#432,#433,#524,.T.);
#299=EDGE_CURVE('',#426,#433,#525,.T.);
#300=EDGE_CURVE('',#434,#435,#526,.T.);
#301=EDGE_CURVE('',#435,#436,#527,.T.);
#302=EDGE_CURVE('',#437,#436,#528,.T.);
#303=EDGE_CURVE('',#434,#437,#529,.T.);
#304=EDGE_CURVE('',#438,#439,#530,.T.);
#305=EDGE_CURVE('',#440,#438,#531,.T.);
#306=EDGE_CURVE('',#440,#441,#532,.T.);
#307=EDGE_CURVE('',#441,#439,#533,.T.);
#308=EDGE_CURVE('',#442,#442,#16,.T.);
#309=EDGE_CURVE('',#443,#443,#17,.T.);
#310=EDGE_CURVE('',#444,#444,#18,.T.);
#311=EDGE_CURVE('',#445,#445,#19,.T.);
#312=EDGE_CURVE('',#446,#447,#534,.T.);
#313=EDGE_CURVE('',#447,#448,#535,.T.);
#314=EDGE_CURVE('',#448,#449,#536,.T.);
#315=EDGE_CURVE('',#449,#450,#537,.T.);
#316=EDGE_CURVE('',#450,#451,#538,.T.);
#317=EDGE_CURVE('',#451,#452,#539,.T.);
#318=EDGE_CURVE('',#452,#453,#540,.T.);
#319=EDGE_CURVE('',#453,#454,#541,.T.);
#320=EDGE_CURVE('',#454,#455,#542,.T.);
#321=EDGE_CURVE('',#455,#456,#543,.T.);
#322=EDGE_CURVE('',#457,#456,#544,.T.);
#323=EDGE_CURVE('',#458,#457,#545,.T.);
#324=EDGE_CURVE('',#459,#458,#546,.T.);
#325=EDGE_CURVE('',#460,#459,#547,.T.);
#326=EDGE_CURVE('',#461,#460,#548,.T.);
#327=EDGE_CURVE('',#462,#461,#549,.T.);
#328=EDGE_CURVE('',#463,#462,#550,.T.);
#329=EDGE_CURVE('',#464,#463,#551,.T.);
#330=EDGE_CURVE('',#464,#429,#552,.T.);
#331=EDGE_CURVE('',#465,#428,#553,.T.);
#332=EDGE_CURVE('',#466,#465,#554,.T.);
#333=EDGE_CURVE('',#466,#433,#555,.T.);
#334=EDGE_CURVE('',#467,#432,#556,.T.);
#335=EDGE_CURVE('',#467,#468,#557,.T.);
#336=EDGE_CURVE('',#446,#468,#558,.T.);
#337=EDGE_CURVE('',#469,#470,#559,.T.);
#338=EDGE_CURVE('',#469,#471,#560,.T.);
#339=EDGE_CURVE('',#471,#472,#561,.T.);
#340=EDGE_CURVE('',#439,#472,#562,.T.);
#341=EDGE_CURVE('',#473,#441,#563,.T.);
#342=EDGE_CURVE('',#473,#474,#564,.T.);
#343=EDGE_CURVE('',#475,#474,#565,.T.);
#344=EDGE_CURVE('',#475,#476,#566,.T.);
#345=EDGE_CURVE('',#477,#476,#567,.T.);
#346=EDGE_CURVE('',#478,#477,#568,.T.);
#347=EDGE_CURVE('',#478,#479,#569,.T.);
#348=EDGE_CURVE('',#479,#437,#570,.T.);
#349=EDGE_CURVE('',#470,#436,#571,.T.);
#350=EDGE_CURVE('',#480,#456,#572,.T.);
#351=EDGE_CURVE('',#481,#480,#573,.T.);
#352=EDGE_CURVE('',#481,#457,#574,.T.);
#353=EDGE_CURVE('',#482,#464,#575,.T.);
#354=EDGE_CURVE('',#482,#430,#576,.T.);
#355=EDGE_CURVE('',#483,#484,#577,.T.);
#356=EDGE_CURVE('',#483,#475,#578,.T.);
#357=EDGE_CURVE('',#484,#474,#579,.T.);
#358=EDGE_CURVE('',#485,#486,#580,.T.);
#359=EDGE_CURVE('',#487,#486,#581,.T.);
#360=EDGE_CURVE('',#487,#483,#582,.T.);
#361=EDGE_CURVE('',#484,#488,#583,.T.);
#362=EDGE_CURVE('',#440,#488,#584,.T.);
#363=EDGE_CURVE('',#489,#438,#585,.T.);
#364=EDGE_CURVE('',#489,#490,#586,.T.);
#365=EDGE_CURVE('',#491,#490,#587,.T.);
#366=EDGE_CURVE('',#492,#491,#588,.T.);
#367=EDGE_CURVE('',#435,#492,#589,.T.);
#368=EDGE_CURVE('',#434,#493,#590,.T.);
#369=EDGE_CURVE('',#493,#485,#591,.T.);
#370=EDGE_CURVE('',#494,#431,#592,.T.);
#371=EDGE_CURVE('',#467,#494,#593,.T.);
#372=EDGE_CURVE('',#495,#448,#594,.T.);
#373=EDGE_CURVE('',#496,#495,#595,.T.);
#374=EDGE_CURVE('',#496,#468,#596,.T.);
#375=EDGE_CURVE('',#494,#497,#597,.T.);
#376=EDGE_CURVE('',#449,#497,#598,.T.);
#377=EDGE_CURVE('',#497,#498,#599,.T.);
#378=EDGE_CURVE('',#498,#450,#600,.T.);
#379=EDGE_CURVE('',#499,#499,#20,.T.);
#380=EDGE_CURVE('',#500,#500,#21,.T.);
#381=EDGE_CURVE('',#501,#501,#22,.T.);
#382=EDGE_CURVE('',#502,#502,#23,.T.);
#383=EDGE_CURVE('',#503,#482,#601,.T.);
#384=EDGE_CURVE('',#504,#503,#602,.T.);
#385=EDGE_CURVE('',#505,#504,#603,.T.);
#386=EDGE_CURVE('',#506,#505,#604,.T.);
#387=EDGE_CURVE('',#507,#506,#605,.T.);
#388=EDGE_CURVE('',#508,#507,#606,.T.);
#389=EDGE_CURVE('',#508,#481,#607,.T.);
#390=EDGE_CURVE('',#480,#509,#608,.T.);
#391=EDGE_CURVE('',#509,#510,#609,.T.);
#392=EDGE_CURVE('',#510,#511,#610,.T.);
#393=EDGE_CURVE('',#511,#512,#611,.T.);
#394=EDGE_CURVE('',#512,#513,#612,.T.);
#395=EDGE_CURVE('',#513,#498,#613,.T.);
#396=EDGE_CURVE('',#514,#465,#614,.T.);
#397=EDGE_CURVE('',#515,#514,#615,.T.);
#398=EDGE_CURVE('',#515,#466,#616,.T.);
#399=EDGE_CURVE('',#426,#515,#617,.T.);
#400=EDGE_CURVE('',#427,#514,#618,.T.);
#401=EDGE_CURVE('',#486,#477,#619,.T.);
#402=EDGE_CURVE('',#485,#478,#620,.T.);
#403=EDGE_CURVE('',#491,#469,#621,.T.);
#404=EDGE_CURVE('',#490,#471,#622,.T.);
#405=EDGE_CURVE('',#516,#446,#623,.T.);
#406=EDGE_CURVE('',#516,#517,#624,.T.);
#407=EDGE_CURVE('',#517,#447,#625,.T.);
#408=EDGE_CURVE('',#496,#516,#626,.T.);
#409=EDGE_CURVE('',#495,#517,#627,.T.);
#410=EDGE_CURVE('',#488,#473,#628,.T.);
#411=EDGE_CURVE('',#508,#458,#629,.T.);
#412=EDGE_CURVE('',#512,#452,#630,.T.);
#413=EDGE_CURVE('',#513,#451,#631,.T.);
#414=EDGE_CURVE('',#504,#462,#632,.T.);
#415=EDGE_CURVE('',#503,#463,#633,.T.);
#416=EDGE_CURVE('',#506,#460,#634,.T.);
#417=EDGE_CURVE('',#505,#461,#635,.T.);
#418=EDGE_CURVE('',#507,#459,#636,.T.);
#419=EDGE_CURVE('',#510,#454,#637,.T.);
#420=EDGE_CURVE('',#511,#453,#638,.T.);
#421=EDGE_CURVE('',#509,#455,#639,.T.);
#422=EDGE_CURVE('',#489,#472,#640,.T.);
#423=EDGE_CURVE('',#493,#479,#641,.T.);
#424=EDGE_CURVE('',#487,#476,#642,.T.);
#425=EDGE_CURVE('',#492,#470,#643,.T.);
#426=VERTEX_POINT('',#1303);
#427=VERTEX_POINT('',#1304);
#428=VERTEX_POINT('',#1306);
#429=VERTEX_POINT('',#1308);
#430=VERTEX_POINT('',#1310);
#431=VERTEX_POINT('',#1312);
#432=VERTEX_POINT('',#1314);
#433=VERTEX_POINT('',#1316);
#434=VERTEX_POINT('',#1320);
#435=VERTEX_POINT('',#1321);
#436=VERTEX_POINT('',#1323);
#437=VERTEX_POINT('',#1325);
#438=VERTEX_POINT('',#1329);
#439=VERTEX_POINT('',#1330);
#440=VERTEX_POINT('',#1332);
#441=VERTEX_POINT('',#1334);
#442=VERTEX_POINT('',#1338);
#443=VERTEX_POINT('',#1340);
#444=VERTEX_POINT('',#1342);
#445=VERTEX_POINT('',#1344);
#446=VERTEX_POINT('',#1346);
#447=VERTEX_POINT('',#1347);
#448=VERTEX_POINT('',#1349);
#449=VERTEX_POINT('',#1351);
#450=VERTEX_POINT('',#1353);
#451=VERTEX_POINT('',#1355);
#452=VERTEX_POINT('',#1357);
#453=VERTEX_POINT('',#1359);
#454=VERTEX_POINT('',#1361);
#455=VERTEX_POINT('',#1363);
#456=VERTEX_POINT('',#1365);
#457=VERTEX_POINT('',#1367);
#458=VERTEX_POINT('',#1369);
#459=VERTEX_POINT('',#1371);
#460=VERTEX_POINT('',#1373);
#461=VERTEX_POINT('',#1375);
#462=VERTEX_POINT('',#1377);
#463=VERTEX_POINT('',#1379);
#464=VERTEX_POINT('',#1381);
#465=VERTEX_POINT('',#1384);
#466=VERTEX_POINT('',#1386);
#467=VERTEX_POINT('',#1389);
#468=VERTEX_POINT('',#1391);
#469=VERTEX_POINT('',#1394);
#470=VERTEX_POINT('',#1395);
#471=VERTEX_POINT('',#1397);
#472=VERTEX_POINT('',#1399);
#473=VERTEX_POINT('',#1402);
#474=VERTEX_POINT('',#1404);
#475=VERTEX_POINT('',#1406);
#476=VERTEX_POINT('',#1408);
#477=VERTEX_POINT('',#1410);
#478=VERTEX_POINT('',#1412);
#479=VERTEX_POINT('',#1414);
#480=VERTEX_POINT('',#1419);
#481=VERTEX_POINT('',#1421);
#482=VERTEX_POINT('',#1425);
#483=VERTEX_POINT('',#1429);
#484=VERTEX_POINT('',#1430);
#485=VERTEX_POINT('',#1435);
#486=VERTEX_POINT('',#1436);
#487=VERTEX_POINT('',#1438);
#488=VERTEX_POINT('',#1441);
#489=VERTEX_POINT('',#1444);
#490=VERTEX_POINT('',#1446);
#491=VERTEX_POINT('',#1448);
#492=VERTEX_POINT('',#1450);
#493=VERTEX_POINT('',#1453);
#494=VERTEX_POINT('',#1457);
#495=VERTEX_POINT('',#1461);
#496=VERTEX_POINT('',#1463);
#497=VERTEX_POINT('',#1466);
#498=VERTEX_POINT('',#1470);
#499=VERTEX_POINT('',#1474);
#500=VERTEX_POINT('',#1476);
#501=VERTEX_POINT('',#1478);
#502=VERTEX_POINT('',#1480);
#503=VERTEX_POINT('',#1482);
#504=VERTEX_POINT('',#1484);
#505=VERTEX_POINT('',#1486);
#506=VERTEX_POINT('',#1488);
#507=VERTEX_POINT('',#1490);
#508=VERTEX_POINT('',#1492);
#509=VERTEX_POINT('',#1495);
#510=VERTEX_POINT('',#1497);
#511=VERTEX_POINT('',#1499);
#512=VERTEX_POINT('',#1501);
#513=VERTEX_POINT('',#1503);
#514=VERTEX_POINT('',#1511);
#515=VERTEX_POINT('',#1513);
#516=VERTEX_POINT('',#1526);
#517=VERTEX_POINT('',#1528);
#518=LINE('',#1302,#644);
#519=LINE('',#1305,#645);
#520=LINE('',#1307,#646);
#521=LINE('',#1309,#647);
#522=LINE('',#1311,#648);
#523=LINE('',#1313,#649);
#524=LINE('',#1315,#650);
#525=LINE('',#1317,#651);
#526=LINE('',#1319,#652);
#527=LINE('',#1322,#653);
#528=LINE('',#1324,#654);
#529=LINE('',#1326,#655);
#530=LINE('',#1328,#656);
#531=LINE('',#1331,#657);
#532=LINE('',#1333,#658);
#533=LINE('',#1335,#659);
#534=LINE('',#1345,#660);
#535=LINE('',#1348,#661);
#536=LINE('',#1350,#662);
#537=LINE('',#1352,#663);
#538=LINE('',#1354,#664);
#539=LINE('',#1356,#665);
#540=LINE('',#1358,#666);
#541=LINE('',#1360,#667);
#542=LINE('',#1362,#668);
#543=LINE('',#1364,#669);
#544=LINE('',#1366,#670);
#545=LINE('',#1368,#671);
#546=LINE('',#1370,#672);
#547=LINE('',#1372,#673);
#548=LINE('',#1374,#674);
#549=LINE('',#1376,#675);
#550=LINE('',#1378,#676);
#551=LINE('',#1380,#677);
#552=LINE('',#1382,#678);
#553=LINE('',#1383,#679);
#554=LINE('',#1385,#680);
#555=LINE('',#1387,#681);
#556=LINE('',#1388,#682);
#557=LINE('',#1390,#683);
#558=LINE('',#1392,#684);
#559=LINE('',#1393,#685);
#560=LINE('',#1396,#686);
#561=LINE('',#1398,#687);
#562=LINE('',#1400,#688);
#563=LINE('',#1401,#689);
#564=LINE('',#1403,#690);
#565=LINE('',#1405,#691);
#566=LINE('',#1407,#692);
#567=LINE('',#1409,#693);
#568=LINE('',#1411,#694);
#569=LINE('',#1413,#695);
#570=LINE('',#1415,#696);
#571=LINE('',#1416,#697);
#572=LINE('',#1418,#698);
#573=LINE('',#1420,#699);
#574=LINE('',#1422,#700);
#575=LINE('',#1424,#701);
#576=LINE('',#1426,#702);
#577=LINE('',#1428,#703);
#578=LINE('',#1431,#704);
#579=LINE('',#1432,#705);
#580=LINE('',#1434,#706);
#581=LINE('',#1437,#707);
#582=LINE('',#1439,#708);
#583=LINE('',#1440,#709);
#584=LINE('',#1442,#710);
#585=LINE('',#1443,#711);
#586=LINE('',#1445,#712);
#587=LINE('',#1447,#713);
#588=LINE('',#1449,#714);
#589=LINE('',#1451,#715);
#590=LINE('',#1452,#716);
#591=LINE('',#1454,#717);
#592=LINE('',#1456,#718);
#593=LINE('',#1458,#719);
#594=LINE('',#1460,#720);
#595=LINE('',#1462,#721);
#596=LINE('',#1464,#722);
#597=LINE('',#1465,#723);
#598=LINE('',#1467,#724);
#599=LINE('',#1469,#725);
#600=LINE('',#1471,#726);
#601=LINE('',#1481,#727);
#602=LINE('',#1483,#728);
#603=LINE('',#1485,#729);
#604=LINE('',#1487,#730);
#605=LINE('',#1489,#731);
#606=LINE('',#1491,#732);
#607=LINE('',#1493,#733);
#608=LINE('',#1494,#734);
#609=LINE('',#1496,#735);
#610=LINE('',#1498,#736);
#611=LINE('',#1500,#737);
#612=LINE('',#1502,#738);
#613=LINE('',#1504,#739);
#614=LINE('',#1510,#740);
#615=LINE('',#1512,#741);
#616=LINE('',#1514,#742);
#617=LINE('',#1516,#743);
#618=LINE('',#1517,#744);
#619=LINE('',#1519,#745);
#620=LINE('',#1520,#746);
#621=LINE('',#1522,#747);
#622=LINE('',#1523,#748);
#623=LINE('',#1525,#749);
#624=LINE('',#1527,#750);
#625=LINE('',#1529,#751);
#626=LINE('',#1531,#752);
#627=LINE('',#1532,#753);
#628=LINE('',#1534,#754);
#629=LINE('',#1537,#755);
#630=LINE('',#1539,#756);
#631=LINE('',#1540,#757);
#632=LINE('',#1543,#758);
#633=LINE('',#1544,#759);
#634=LINE('',#1547,#760);
#635=LINE('',#1548,#761);
#636=LINE('',#1551,#762);
#637=LINE('',#1554,#763);
#638=LINE('',#1555,#764);
#639=LINE('',#1558,#765);
#640=LINE('',#1561,#766);
#641=LINE('',#1564,#767);
#642=LINE('',#1567,#768);
#643=LINE('',#1570,#769);
#644=VECTOR('',#1062,1.);
#645=VECTOR('',#1063,1.);
#646=VECTOR('',#1064,1.);
#647=VECTOR('',#1065,1.);
#648=VECTOR('',#1066,1.);
#649=VECTOR('',#1067,1.);
#650=VECTOR('',#1068,1.);
#651=VECTOR('',#1069,1.);
#652=VECTOR('',#1072,1.);
#653=VECTOR('',#1073,1.);
#654=VECTOR('',#1074,1.);
#655=VECTOR('',#1075,1.);
#656=VECTOR('',#1078,1.);
#657=VECTOR('',#1079,1.);
#658=VECTOR('',#1080,1.);
#659=VECTOR('',#1081,1.);
#660=VECTOR('',#1092,1.);
#661=VECTOR('',#1093,1.);
#662=VECTOR('',#1094,1.);
#663=VECTOR('',#1095,1.);
#664=VECTOR('',#1096,1.);
#665=VECTOR('',#1097,1.);
#666=VECTOR('',#1098,1.);
#667=VECTOR('',#1099,1.);
#668=VECTOR('',#1100,1.);
#669=VECTOR('',#1101,1.);
#670=VECTOR('',#1102,1.);
#671=VECTOR('',#1103,1.);
#672=VECTOR('',#1104,1.);
#673=VECTOR('',#1105,1.);
#674=VECTOR('',#1106,1.);
#675=VECTOR('',#1107,1.);
#676=VECTOR('',#1108,1.);
#677=VECTOR('',#1109,1.);
#678=VECTOR('',#1110,1.);
#679=VECTOR('',#1111,1.);
#680=VECTOR('',#1112,1.);
#681=VECTOR('',#1113,1.);
#682=VECTOR('',#1114,1.);
#683=VECTOR('',#1115,1.);
#684=VECTOR('',#1116,1.);
#685=VECTOR('',#1117,1.);
#686=VECTOR('',#1118,1.);
#687=VECTOR('',#1119,1.);
#688=VECTOR('',#1120,1.);
#689=VECTOR('',#1121,1.);
#690=VECTOR('',#1122,1.);
#691=VECTOR('',#1123,1.);
#692=VECTOR('',#1124,1.);
#693=VECTOR('',#1125,1.);
#694=VECTOR('',#1126,1.);
#695=VECTOR('',#1127,1.);
#696=VECTOR('',#1128,1.);
#697=VECTOR('',#1129,1.);
#698=VECTOR('',#1132,1.);
#699=VECTOR('',#1133,1.);
#700=VECTOR('',#1134,1.);
#701=VECTOR('',#1137,1.);
#702=VECTOR('',#1138,1.);
#703=VECTOR('',#1141,1.);
#704=VECTOR('',#1142,1.);
#705=VECTOR('',#1143,1.);
#706=VECTOR('',#1146,1.);
#707=VECTOR('',#1147,1.);
#708=VECTOR('',#1148,1.);
#709=VECTOR('',#1149,1.);
#710=VECTOR('',#1150,1.);
#711=VECTOR('',#1151,1.);
#712=VECTOR('',#1152,1.);
#713=VECTOR('',#1153,1.);
#714=VECTOR('',#1154,1.);
#715=VECTOR('',#1155,1.);
#716=VECTOR('',#1156,1.);
#717=VECTOR('',#1157,1.);
#718=VECTOR('',#1160,1.);
#719=VECTOR('',#1161,1.);
#720=VECTOR('',#1164,1.);
#721=VECTOR('',#1165,1.);
#722=VECTOR('',#1166,1.);
#723=VECTOR('',#1167,1.);
#724=VECTOR('',#1168,1.);
#725=VECTOR('',#1171,1.);
#726=VECTOR('',#1172,1.);
#727=VECTOR('',#1183,1.);
#728=VECTOR('',#1184,1.);
#729=VECTOR('',#1185,1.);
#730=VECTOR('',#1186,1.);
#731=VECTOR('',#1187,1.);
#732=VECTOR('',#1188,1.);
#733=VECTOR('',#1189,1.);
#734=VECTOR('',#1190,1.);
#735=VECTOR('',#1191,1.);
#736=VECTOR('',#1192,1.);
#737=VECTOR('',#1193,1.);
#738=VECTOR('',#1194,1.);
#739=VECTOR('',#1195,1.);
#740=VECTOR('',#1206,1.);
#741=VECTOR('',#1207,1.);
#742=VECTOR('',#1208,1.);
#743=VECTOR('',#1211,1.);
#744=VECTOR('',#1212,1.);
#745=VECTOR('',#1215,1.);
#746=VECTOR('',#1216,1.);
#747=VECTOR('',#1219,1.);
#748=VECTOR('',#1220,1.);
#749=VECTOR('',#1223,1.);
#750=VECTOR('',#1224,1.);
#751=VECTOR('',#1225,1.);
#752=VECTOR('',#1228,1.);
#753=VECTOR('',#1229,1.);
#754=VECTOR('',#1232,1.);
#755=VECTOR('',#1237,1.);
#756=VECTOR('',#1240,1.);
#757=VECTOR('',#1241,1.);
#758=VECTOR('',#1246,1.);
#759=VECTOR('',#1247,1.);
#760=VECTOR('',#1252,1.);
#761=VECTOR('',#1253,1.);
#762=VECTOR('',#1258,1.);
#763=VECTOR('',#1263,1.);
#764=VECTOR('',#1264,1.);
#765=VECTOR('',#1269,1.);
#766=VECTOR('',#1274,1.);
#767=VECTOR('',#1279,1.);
#768=VECTOR('',#1284,1.);
#769=VECTOR('',#1289,1.);
#770=EDGE_LOOP('',(#24,#25,#26,#27,#28,#29,#30,#31));
#771=EDGE_LOOP('',(#32,#33,#34,#35));
#772=EDGE_LOOP('',(#36,#37,#38,#39));
#773=EDGE_LOOP('',(#40));
#774=EDGE_LOOP('',(#41));
#775=EDGE_LOOP('',(#42));
#776=EDGE_LOOP('',(#43));
#777=EDGE_LOOP('',(#44,#45,#46,#47,#48,#49,#50,#51,#52,#53,#54,#55,#56,
#57,#58,#59,#60,#61,#62,#63,#64,#65,#66,#67,#68,#69,#70));
#778=EDGE_LOOP('',(#71,#72,#73,#74,#75,#76,#77,#78,#79,#80,#81,#82,#83,
#84,#85));
#779=EDGE_LOOP('',(#86,#87,#88,#89));
#780=EDGE_LOOP('',(#90,#91,#92,#93));
#781=EDGE_LOOP('',(#94,#95,#96,#97));
#782=EDGE_LOOP('',(#98,#99,#100,#101,#102,#103,#104,#105,#106,#107,#108,
#109,#110,#111,#112));
#783=EDGE_LOOP('',(#113,#114,#115,#116));
#784=EDGE_LOOP('',(#117,#118,#119,#120,#121,#122,#123,#124));
#785=EDGE_LOOP('',(#125,#126,#127,#128));
#786=EDGE_LOOP('',(#129));
#787=EDGE_LOOP('',(#130));
#788=EDGE_LOOP('',(#131));
#789=EDGE_LOOP('',(#132));
#790=EDGE_LOOP('',(#133,#134,#135,#136,#137,#138,#139,#140,#141,#142,#143,
#144,#145,#146,#147,#148,#149,#150,#151));
#791=EDGE_LOOP('',(#152));
#792=EDGE_LOOP('',(#153));
#793=EDGE_LOOP('',(#154));
#794=EDGE_LOOP('',(#155));
#795=EDGE_LOOP('',(#156));
#796=EDGE_LOOP('',(#157));
#797=EDGE_LOOP('',(#158));
#798=EDGE_LOOP('',(#159));
#799=EDGE_LOOP('',(#160,#161,#162,#163));
#800=EDGE_LOOP('',(#164,#165,#166,#167));
#801=EDGE_LOOP('',(#168,#169,#170,#171));
#802=EDGE_LOOP('',(#172,#173,#174,#175));
#803=EDGE_LOOP('',(#176,#177,#178,#179));
#804=EDGE_LOOP('',(#180,#181,#182,#183));
#805=EDGE_LOOP('',(#184,#185,#186,#187));
#806=EDGE_LOOP('',(#188,#189,#190,#191));
#807=EDGE_LOOP('',(#192,#193,#194,#195));
#808=EDGE_LOOP('',(#196,#197,#198,#199));
#809=EDGE_LOOP('',(#200,#201,#202,#203));
#810=EDGE_LOOP('',(#204,#205,#206,#207));
#811=EDGE_LOOP('',(#208,#209,#210,#211));
#812=EDGE_LOOP('',(#212,#213,#214,#215));
#813=EDGE_LOOP('',(#216,#217,#218,#219));
#814=EDGE_LOOP('',(#220,#221,#222,#223));
#815=EDGE_LOOP('',(#224,#225,#226,#227));
#816=EDGE_LOOP('',(#228,#229,#230,#231));
#817=EDGE_LOOP('',(#232,#233,#234,#235));
#818=EDGE_LOOP('',(#236,#237,#238,#239));
#819=EDGE_LOOP('',(#240,#241,#242,#243));
#820=EDGE_LOOP('',(#244,#245,#246,#247));
#821=EDGE_LOOP('',(#248,#249,#250,#251));
#822=EDGE_LOOP('',(#252,#253,#254,#255));
#823=EDGE_LOOP('',(#256,#257,#258,#259));
#824=EDGE_LOOP('',(#260,#261,#262,#263));
#825=EDGE_LOOP('',(#264,#265,#266,#267));
#826=EDGE_LOOP('',(#268,#269,#270,#271));
#827=EDGE_LOOP('',(#272,#273,#274,#275));
#828=EDGE_LOOP('',(#276,#277,#278,#279));
#829=EDGE_LOOP('',(#280,#281,#282,#283));
#830=EDGE_LOOP('',(#284,#285,#286,#287));
#831=EDGE_LOOP('',(#288,#289,#290,#291));
#832=FACE_BOUND('',#770,.T.);
#833=FACE_BOUND('',#771,.T.);
#834=FACE_BOUND('',#772,.T.);
#835=FACE_BOUND('',#773,.T.);
#836=FACE_BOUND('',#774,.T.);
#837=FACE_BOUND('',#775,.T.);
#838=FACE_BOUND('',#776,.T.);
#839=FACE_BOUND('',#777,.T.);
#840=FACE_BOUND('',#778,.T.);
#841=FACE_BOUND('',#779,.T.);
#842=FACE_BOUND('',#780,.T.);
#843=FACE_BOUND('',#781,.T.);
#844=FACE_BOUND('',#782,.T.);
#845=FACE_BOUND('',#783,.T.);
#846=FACE_BOUND('',#784,.T.);
#847=FACE_BOUND('',#785,.T.);
#848=FACE_BOUND('',#786,.T.);
#849=FACE_BOUND('',#787,.T.);
#850=FACE_BOUND('',#788,.T.);
#851=FACE_BOUND('',#789,.T.);
#852=FACE_BOUND('',#790,.T.);
#853=FACE_BOUND('',#791,.T.);
#854=FACE_BOUND('',#792,.T.);
#855=FACE_BOUND('',#793,.T.);
#856=FACE_BOUND('',#794,.T.);
#857=FACE_BOUND('',#795,.T.);
#858=FACE_BOUND('',#796,.T.);
#859=FACE_BOUND('',#797,.T.);
#860=FACE_BOUND('',#798,.T.);
#861=FACE_BOUND('',#799,.T.);
#862=FACE_BOUND('',#800,.T.);
#863=FACE_BOUND('',#801,.T.);
#864=FACE_BOUND('',#802,.T.);
#865=FACE_BOUND('',#803,.T.);
#866=FACE_BOUND('',#804,.T.);
#867=FACE_BOUND('',#805,.T.);
#868=FACE_BOUND('',#806,.T.);
#869=FACE_BOUND('',#807,.T.);
#870=FACE_BOUND('',#808,.T.);
#871=FACE_BOUND('',#809,.T.);
#872=FACE_BOUND('',#810,.T.);
#873=FACE_BOUND('',#811,.T.);
#874=FACE_BOUND('',#812,.T.);
#875=FACE_BOUND('',#813,.T.);
#876=FACE_BOUND('',#814,.T.);
#877=FACE_BOUND('',#815,.T.);
#878=FACE_BOUND('',#816,.T.);
#879=FACE_BOUND('',#817,.T.);
#880=FACE_BOUND('',#818,.T.);
#881=FACE_BOUND('',#819,.T.);
#882=FACE_BOUND('',#820,.T.);
#883=FACE_BOUND('',#821,.T.);
#884=FACE_BOUND('',#822,.T.);
#885=FACE_BOUND('',#823,.T.);
#886=FACE_BOUND('',#824,.T.);
#887=FACE_BOUND('',#825,.T.);
#888=FACE_BOUND('',#826,.T.);
#889=FACE_BOUND('',#827,.T.);
#890=FACE_BOUND('',#828,.T.);
#891=FACE_BOUND('',#829,.T.);
#892=FACE_BOUND('',#830,.T.);
#893=FACE_BOUND('',#831,.T.);
#894=PLANE('',#1001);
#895=PLANE('',#1002);
#896=PLANE('',#1003);
#897=PLANE('',#1004);
#898=PLANE('',#1009);
#899=PLANE('',#1010);
#900=PLANE('',#1011);
#901=PLANE('',#1012);
#902=PLANE('',#1013);
#903=PLANE('',#1014);
#904=PLANE('',#1015);
#905=PLANE('',#1016);
#906=PLANE('',#1025);
#907=PLANE('',#1026);
#908=PLANE('',#1027);
#909=PLANE('',#1028);
#910=PLANE('',#1029);
#911=PLANE('',#1030);
#912=PLANE('',#1031);
#913=PLANE('',#1032);
#914=PLANE('',#1033);
#915=PLANE('',#1034);
#916=PLANE('',#1035);
#917=PLANE('',#1036);
#918=PLANE('',#1037);
#919=PLANE('',#1038);
#920=PLANE('',#1039);
#921=PLANE('',#1040);
#922=PLANE('',#1041);
#923=PLANE('',#1042);
#924=PLANE('',#1043);
#925=PLANE('',#1044);
#926=PLANE('',#1045);
#927=PLANE('',#1046);
#928=PLANE('',#1047);
#929=PLANE('',#1048);
#930=PLANE('',#1049);
#931=PLANE('',#1050);
#932=PLANE('',#1051);
#933=PLANE('',#1052);
#934=PLANE('',#1053);
#935=PLANE('',#1054);
#936=PLANE('',#1055);
#937=PLANE('',#1056);
#938=PLANE('',#1057);
#939=ADVANCED_FACE('',(#832),#894,.T.);
#940=ADVANCED_FACE('',(#833),#895,.T.);
#941=ADVANCED_FACE('',(#834),#896,.F.);
#942=ADVANCED_FACE('',(#835,#836,#837,#838,#839,#840),#897,.T.);
#943=ADVANCED_FACE('',(#841),#898,.F.);
#944=ADVANCED_FACE('',(#842),#899,.F.);
#945=ADVANCED_FACE('',(#843),#900,.F.);
#946=ADVANCED_FACE('',(#844),#901,.T.);
#947=ADVANCED_FACE('',(#845),#902,.T.);
#948=ADVANCED_FACE('',(#846),#903,.F.);
#949=ADVANCED_FACE('',(#847),#904,.F.);
#950=ADVANCED_FACE('',(#848,#849,#850,#851,#852),#905,.F.);
#951=ADVANCED_FACE('',(#853,#854),#12,.F.);
#952=ADVANCED_FACE('',(#855,#856),#13,.F.);
#953=ADVANCED_FACE('',(#857,#858),#14,.F.);
#954=ADVANCED_FACE('',(#859,#860),#15,.F.);
#955=ADVANCED_FACE('',(#861),#906,.F.);
#956=ADVANCED_FACE('',(#862),#907,.T.);
#957=ADVANCED_FACE('',(#863),#908,.F.);
#958=ADVANCED_FACE('',(#864),#909,.T.);
#959=ADVANCED_FACE('',(#865),#910,.T.);
#960=ADVANCED_FACE('',(#866),#911,.T.);
#961=ADVANCED_FACE('',(#867),#912,.F.);
#962=ADVANCED_FACE('',(#868),#913,.T.);
#963=ADVANCED_FACE('',(#869),#914,.F.);
#964=ADVANCED_FACE('',(#870),#915,.T.);
#965=ADVANCED_FACE('',(#871),#916,.T.);
#966=ADVANCED_FACE('',(#872),#917,.F.);
#967=ADVANCED_FACE('',(#873),#918,.F.);
#968=ADVANCED_FACE('',(#874),#919,.F.);
#969=ADVANCED_FACE('',(#875),#920,.F.);
#970=ADVANCED_FACE('',(#876),#921,.F.);
#971=ADVANCED_FACE('',(#877),#922,.F.);
#972=ADVANCED_FACE('',(#878),#923,.T.);
#973=ADVANCED_FACE('',(#879),#924,.T.);
#974=ADVANCED_FACE('',(#880),#925,.T.);
#975=ADVANCED_FACE('',(#881),#926,.T.);
#976=ADVANCED_FACE('',(#882),#927,.T.);
#977=ADVANCED_FACE('',(#883),#928,.F.);
#978=ADVANCED_FACE('',(#884),#929,.T.);
#979=ADVANCED_FACE('',(#885),#930,.T.);
#980=ADVANCED_FACE('',(#886),#931,.T.);
#981=ADVANCED_FACE('',(#887),#932,.F.);
#982=ADVANCED_FACE('',(#888),#933,.F.);
#983=ADVANCED_FACE('',(#889),#934,.F.);
#984=ADVANCED_FACE('',(#890),#935,.F.);
#985=ADVANCED_FACE('',(#891),#936,.T.);
#986=ADVANCED_FACE('',(#892),#937,.T.);
#987=ADVANCED_FACE('',(#893),#938,.F.);
#988=CLOSED_SHELL('',(#939,#940,#941,#942,#943,#944,#945,#946,#947,#948,
#949,#950,#951,#952,#953,#954,#955,#956,#957,#958,#959,#960,#961,#962,#963,
#964,#965,#966,#967,#968,#969,#970,#971,#972,#973,#974,#975,#976,#977,#978,
#979,#980,#981,#982,#983,#984,#985,#986,#987));
#989=STYLED_ITEM('',(#990),#997);
#990=PRESENTATION_STYLE_ASSIGNMENT((#991));
#991=SURFACE_STYLE_USAGE(.BOTH.,#992);
#992=SURFACE_SIDE_STYLE('',(#993));
#993=SURFACE_STYLE_FILL_AREA(#994);
#994=FILL_AREA_STYLE('',(#995));
#995=FILL_AREA_STYLE_COLOUR('',#996);
#996=COLOUR_RGB('',0.615686274509804,0.811764705882353,0.929411764705882);
#997=MANIFOLD_SOLID_BREP('CatsEyesHolder',#988);
#998=SHAPE_DEFINITION_REPRESENTATION(#1582,#999);
#999=SHAPE_REPRESENTATION('CatsEyesHolder',(#1000),#1577);
#1000=AXIS2_PLACEMENT_3D('',#1300,#1058,#1059);
#1001=AXIS2_PLACEMENT_3D('',#1301,#1060,#1061);
#1002=AXIS2_PLACEMENT_3D('',#1318,#1070,#1071);
#1003=AXIS2_PLACEMENT_3D('',#1327,#1076,#1077);
#1004=AXIS2_PLACEMENT_3D('',#1336,#1082,#1083);
#1005=AXIS2_PLACEMENT_3D('',#1337,#1084,#1085);
#1006=AXIS2_PLACEMENT_3D('',#1339,#1086,#1087);
#1007=AXIS2_PLACEMENT_3D('',#1341,#1088,#1089);
#1008=AXIS2_PLACEMENT_3D('',#1343,#1090,#1091);
#1009=AXIS2_PLACEMENT_3D('',#1417,#1130,#1131);
#1010=AXIS2_PLACEMENT_3D('',#1423,#1135,#1136);
#1011=AXIS2_PLACEMENT_3D('',#1427,#1139,#1140);
#1012=AXIS2_PLACEMENT_3D('',#1433,#1144,#1145);
#1013=AXIS2_PLACEMENT_3D('',#1455,#1158,#1159);
#1014=AXIS2_PLACEMENT_3D('',#1459,#1162,#1163);
#1015=AXIS2_PLACEMENT_3D('',#1468,#1169,#1170);
#1016=AXIS2_PLACEMENT_3D('',#1472,#1173,#1174);
#1017=AXIS2_PLACEMENT_3D('',#1473,#1175,#1176);
#1018=AXIS2_PLACEMENT_3D('',#1475,#1177,#1178);
#1019=AXIS2_PLACEMENT_3D('',#1477,#1179,#1180);
#1020=AXIS2_PLACEMENT_3D('',#1479,#1181,#1182);
#1021=AXIS2_PLACEMENT_3D('',#1505,#1196,#1197);
#1022=AXIS2_PLACEMENT_3D('',#1506,#1198,#1199);
#1023=AXIS2_PLACEMENT_3D('',#1507,#1200,#1201);
#1024=AXIS2_PLACEMENT_3D('',#1508,#1202,#1203);
#1025=AXIS2_PLACEMENT_3D('',#1509,#1204,#1205);
#1026=AXIS2_PLACEMENT_3D('',#1515,#1209,#1210);
#1027=AXIS2_PLACEMENT_3D('',#1518,#1213,#1214);
#1028=AXIS2_PLACEMENT_3D('',#1521,#1217,#1218);
#1029=AXIS2_PLACEMENT_3D('',#1524,#1221,#1222);
#1030=AXIS2_PLACEMENT_3D('',#1530,#1226,#1227);
#1031=AXIS2_PLACEMENT_3D('',#1533,#1230,#1231);
#1032=AXIS2_PLACEMENT_3D('',#1535,#1233,#1234);
#1033=AXIS2_PLACEMENT_3D('',#1536,#1235,#1236);
#1034=AXIS2_PLACEMENT_3D('',#1538,#1238,#1239);
#1035=AXIS2_PLACEMENT_3D('',#1541,#1242,#1243);
#1036=AXIS2_PLACEMENT_3D('',#1542,#1244,#1245);
#1037=AXIS2_PLACEMENT_3D('',#1545,#1248,#1249);
#1038=AXIS2_PLACEMENT_3D('',#1546,#1250,#1251);
#1039=AXIS2_PLACEMENT_3D('',#1549,#1254,#1255);
#1040=AXIS2_PLACEMENT_3D('',#1550,#1256,#1257);
#1041=AXIS2_PLACEMENT_3D('',#1552,#1259,#1260);
#1042=AXIS2_PLACEMENT_3D('',#1553,#1261,#1262);
#1043=AXIS2_PLACEMENT_3D('',#1556,#1265,#1266);
#1044=AXIS2_PLACEMENT_3D('',#1557,#1267,#1268);
#1045=AXIS2_PLACEMENT_3D('',#1559,#1270,#1271);
#1046=AXIS2_PLACEMENT_3D('',#1560,#1272,#1273);
#1047=AXIS2_PLACEMENT_3D('',#1562,#1275,#1276);
#1048=AXIS2_PLACEMENT_3D('',#1563,#1277,#1278);
#1049=AXIS2_PLACEMENT_3D('',#1565,#1280,#1281);
#1050=AXIS2_PLACEMENT_3D('',#1566,#1282,#1283);
#1051=AXIS2_PLACEMENT_3D('',#1568,#1285,#1286);
#1052=AXIS2_PLACEMENT_3D('',#1569,#1287,#1288);
#1053=AXIS2_PLACEMENT_3D('',#1571,#1290,#1291);
#1054=AXIS2_PLACEMENT_3D('',#1572,#1292,#1293);
#1055=AXIS2_PLACEMENT_3D('',#1573,#1294,#1295);
#1056=AXIS2_PLACEMENT_3D('',#1574,#1296,#1297);
#1057=AXIS2_PLACEMENT_3D('',#1575,#1298,#1299);
#1058=DIRECTION('',(0.,0.,1.));
#1059=DIRECTION('',(1.,0.,0.));
#1060=DIRECTION('',(1.,0.,0.));
#1061=DIRECTION('',(0.,0.,-1.));
#1062=DIRECTION('',(0.,0.,-1.));
#1063=DIRECTION('',(0.,-1.,0.));
#1064=DIRECTION('',(0.,0.,-1.));
#1065=DIRECTION('',(0.,1.,0.));
#1066=DIRECTION('',(0.,0.,-1.));
#1067=DIRECTION('',(0.,1.,0.));
#1068=DIRECTION('',(0.,0.,-1.));
#1069=DIRECTION('',(0.,-1.,0.));
#1070=DIRECTION('',(1.63910879619856E-16,0.,-1.));
#1071=DIRECTION('',(-1.,0.,-1.63910879619856E-16));
#1072=DIRECTION('',(1.,0.,1.63910879619856E-16));
#1073=DIRECTION('',(0.,-1.,0.));
#1074=DIRECTION('',(1.,0.,1.63910879619856E-16));
#1075=DIRECTION('',(0.,-1.,0.));
#1076=DIRECTION('',(1.63910879619856E-16,0.,-1.));
#1077=DIRECTION('',(-1.,0.,-1.63910879619856E-16));
#1078=DIRECTION('',(0.,-1.,0.));
#1079=DIRECTION('',(1.,0.,1.63910879619856E-16));
#1080=DIRECTION('',(0.,-1.,0.));
#1081=DIRECTION('',(1.,0.,1.63910879619856E-16));
#1082=DIRECTION('',(0.,-1.,0.));
#1083=DIRECTION('',(1.,0.,0.));
#1084=DIRECTION('',(0.,-1.,0.));
#1085=DIRECTION('',(0.,0.,-1.));
#1086=DIRECTION('',(0.,-1.,0.));
#1087=DIRECTION('',(0.,0.,-1.));
#1088=DIRECTION('',(0.,-1.,0.));
#1089=DIRECTION('',(0.,0.,-1.));
#1090=DIRECTION('',(0.,-1.,0.));
#1091=DIRECTION('',(0.,0.,-1.));
#1092=DIRECTION('',(0.,0.,-1.));
#1093=DIRECTION('',(-1.,0.,0.));
#1094=DIRECTION('',(0.,0.,-1.));
#1095=DIRECTION('',(1.,0.,0.));
#1096=DIRECTION('',(0.666550808889758,0.,0.74545960264015));
#1097=DIRECTION('',(-1.,0.,0.));
#1098=DIRECTION('',(0.666550808889758,0.,0.74545960264015));
#1099=DIRECTION('',(-1.,0.,0.));
#1100=DIRECTION('',(0.666550808889758,0.,0.74545960264015));
#1101=DIRECTION('',(-1.,0.,0.));
#1102=DIRECTION('',(-0.371390676354103,0.,-0.928476690885259));
#1103=DIRECTION('',(-0.371390676354104,0.,0.928476690885259));
#1104=DIRECTION('',(1.,0.,0.));
#1105=DIRECTION('',(-0.666550808889758,0.,0.745459602640149));
#1106=DIRECTION('',(1.,0.,0.));
#1107=DIRECTION('',(-0.666550808889758,0.,0.745459602640149));
#1108=DIRECTION('',(1.,0.,0.));
#1109=DIRECTION('',(-0.666550808889758,0.,0.745459602640149));
#1110=DIRECTION('',(1.,0.,0.));
#1111=DIRECTION('',(1.,0.,0.));
#1112=DIRECTION('',(0.,0.,-1.));
#1113=DIRECTION('',(1.,0.,0.));
#1114=DIRECTION('',(1.,0.,0.));
#1115=DIRECTION('',(0.,0.,-1.));
#1116=DIRECTION('',(-1.,0.,0.));
#1117=DIRECTION('',(-1.,0.,0.));
#1118=DIRECTION('',(0.,0.,-1.));
#1119=DIRECTION('',(-1.,0.,0.));
#1120=DIRECTION('',(6.82961998416065E-16,0.,-1.));
#1121=DIRECTION('',(0.371390676354104,0.,-0.928476690885259));
#1122=DIRECTION('',(-0.371390676354103,0.,-0.928476690885259));
#1123=DIRECTION('',(1.,0.,1.63910879619856E-16));
#1124=DIRECTION('',(0.,0.,-1.));
#1125=DIRECTION('',(1.,0.,0.));
#1126=DIRECTION('',(0.,0.,-1.));
#1127=DIRECTION('',(1.,0.,0.));
#1128=DIRECTION('',(0.,0.,-1.));
#1129=DIRECTION('',(0.,0.,-1.));
#1130=DIRECTION('',(-0.92847669088526,0.,0.371390676354103));
#1131=DIRECTION('',(0.371390676354103,0.,0.92847669088526));
#1132=DIRECTION('',(0.,-1.,0.));
#1133=DIRECTION('',(-0.371390676354103,0.,-0.92847669088526));
#1134=DIRECTION('',(0.,-1.,0.));
#1135=DIRECTION('',(0.,0.,1.));
#1136=DIRECTION('',(1.,0.,0.));
#1137=DIRECTION('',(0.,-1.,0.));
#1138=DIRECTION('',(1.,0.,0.));
#1139=DIRECTION('',(1.63910879619856E-16,0.,-1.));
#1140=DIRECTION('',(-1.,0.,-1.63910879619856E-16));
#1141=DIRECTION('',(1.,0.,1.63910879619856E-16));
#1142=DIRECTION('',(0.,-1.,0.));
#1143=DIRECTION('',(0.,-1.,0.));
#1144=DIRECTION('',(0.,-1.,0.));
#1145=DIRECTION('',(1.,0.,0.));
#1146=DIRECTION('',(0.,0.,-1.));
#1147=DIRECTION('',(-1.,0.,0.));
#1148=DIRECTION('',(0.,0.,1.));
#1149=DIRECTION('',(0.371390676354103,0.,0.928476690885259));
#1150=DIRECTION('',(-0.371390676354104,0.,0.928476690885259));
#1151=DIRECTION('',(-6.82961998416065E-16,0.,1.));
#1152=DIRECTION('',(1.,0.,0.));
#1153=DIRECTION('',(0.,0.,-1.));
#1154=DIRECTION('',(1.,0.,0.));
#1155=DIRECTION('',(0.,0.,1.));
#1156=DIRECTION('',(0.,0.,1.));
#1157=DIRECTION('',(-1.,0.,0.));
#1158=DIRECTION('',(0.,0.,1.));
#1159=DIRECTION('',(1.,0.,0.));
#1160=DIRECTION('',(1.,0.,0.));
#1161=DIRECTION('',(0.,1.,0.));
#1162=DIRECTION('',(1.,0.,0.));
#1163=DIRECTION('',(0.,0.,-1.));
#1164=DIRECTION('',(0.,-1.,0.));
#1165=DIRECTION('',(0.,0.,-1.));
#1166=DIRECTION('',(0.,-1.,0.));
#1167=DIRECTION('',(0.,0.,-1.));
#1168=DIRECTION('',(0.,1.,0.));
#1169=DIRECTION('',(0.,0.,1.));
#1170=DIRECTION('',(1.,0.,0.));
#1171=DIRECTION('',(1.,0.,0.));
#1172=DIRECTION('',(0.,-1.,0.));
#1173=DIRECTION('',(0.,-1.,0.));
#1174=DIRECTION('',(1.,0.,0.));
#1175=DIRECTION('',(0.,-1.,0.));
#1176=DIRECTION('',(0.,0.,-1.));
#1177=DIRECTION('',(0.,-1.,0.));
#1178=DIRECTION('',(0.,0.,-1.));
#1179=DIRECTION('',(0.,-1.,0.));
#1180=DIRECTION('',(0.,0.,-1.));
#1181=DIRECTION('',(0.,-1.,0.));
#1182=DIRECTION('',(0.,0.,-1.));
#1183=DIRECTION('',(0.666550808889758,0.,-0.74545960264015));
#1184=DIRECTION('',(-1.,0.,0.));
#1185=DIRECTION('',(0.666550808889758,0.,-0.745459602640149));
#1186=DIRECTION('',(-1.,0.,0.));
#1187=DIRECTION('',(0.666550808889758,0.,-0.745459602640149));
#1188=DIRECTION('',(-1.,0.,0.));
#1189=DIRECTION('',(-0.371390676354104,0.,0.928476690885259));
#1190=DIRECTION('',(1.,0.,0.));
#1191=DIRECTION('',(-0.666550808889758,0.,-0.74545960264015));
#1192=DIRECTION('',(1.,0.,0.));
#1193=DIRECTION('',(-0.666550808889758,0.,-0.74545960264015));
#1194=DIRECTION('',(1.,0.,0.));
#1195=DIRECTION('',(-0.666550808889758,0.,-0.74545960264015));
#1196=DIRECTION('',(0.,-1.,0.));
#1197=DIRECTION('',(0.,0.,-1.));
#1198=DIRECTION('',(0.,-1.,0.));
#1199=DIRECTION('',(0.,0.,-1.));
#1200=DIRECTION('',(0.,-1.,0.));
#1201=DIRECTION('',(0.,0.,-1.));
#1202=DIRECTION('',(0.,-1.,0.));
#1203=DIRECTION('',(0.,0.,-1.));
#1204=DIRECTION('',(-1.,0.,0.));
#1205=DIRECTION('',(0.,0.,1.));
#1206=DIRECTION('',(0.,-1.,0.));
#1207=DIRECTION('',(0.,0.,-1.));
#1208=DIRECTION('',(0.,-1.,0.));
#1209=DIRECTION('',(0.,-1.,0.));
#1210=DIRECTION('',(1.,0.,0.));
#1211=DIRECTION('',(-1.,0.,0.));
#1212=DIRECTION('',(-1.,0.,0.));
#1213=DIRECTION('',(-1.,0.,0.));
#1214=DIRECTION('',(0.,0.,1.));
#1215=DIRECTION('',(0.,-1.,0.));
#1216=DIRECTION('',(0.,-1.,0.));
#1217=DIRECTION('',(-1.,0.,0.));
#1218=DIRECTION('',(0.,0.,1.));
#1219=DIRECTION('',(0.,-1.,0.));
#1220=DIRECTION('',(0.,-1.,0.));
#1221=DIRECTION('',(-1.,0.,0.));
#1222=DIRECTION('',(0.,0.,1.));
#1223=DIRECTION('',(0.,-1.,0.));
#1224=DIRECTION('',(0.,0.,-1.));
#1225=DIRECTION('',(0.,-1.,0.));
#1226=DIRECTION('',(0.,-1.,0.));
#1227=DIRECTION('',(1.,0.,0.));
#1228=DIRECTION('',(1.,0.,0.));
#1229=DIRECTION('',(1.,0.,0.));
#1230=DIRECTION('',(-0.928476690885259,0.,-0.371390676354104));
#1231=DIRECTION('',(-0.371390676354104,0.,0.928476690885259));
#1232=DIRECTION('',(0.,-1.,0.));
#1233=DIRECTION('',(-0.928476690885259,0.,0.371390676354103));
#1234=DIRECTION('',(0.371390676354103,0.,0.928476690885259));
#1235=DIRECTION('',(0.928476690885259,0.,0.371390676354104));
#1236=DIRECTION('',(0.371390676354104,0.,-0.928476690885259));
#1237=DIRECTION('',(0.,-1.,0.));
#1238=DIRECTION('',(0.,0.,1.));
#1239=DIRECTION('',(1.,0.,0.));
#1240=DIRECTION('',(0.,-1.,0.));
#1241=DIRECTION('',(0.,-1.,0.));
#1242=DIRECTION('',(0.74545960264015,0.,-0.666550808889758));
#1243=DIRECTION('',(-0.666550808889758,0.,-0.74545960264015));
#1244=DIRECTION('',(0.,0.,-1.));
#1245=DIRECTION('',(-1.,0.,0.));
#1246=DIRECTION('',(0.,-1.,0.));
#1247=DIRECTION('',(0.,-1.,0.));
#1248=DIRECTION('',(0.745459602640149,0.,0.666550808889758));
#1249=DIRECTION('',(0.666550808889758,0.,-0.74545960264015));
#1250=DIRECTION('',(0.,0.,-1.));
#1251=DIRECTION('',(-1.,0.,0.));
#1252=DIRECTION('',(0.,-1.,0.));
#1253=DIRECTION('',(0.,-1.,0.));
#1254=DIRECTION('',(0.745459602640149,0.,0.666550808889758));
#1255=DIRECTION('',(0.666550808889758,0.,-0.745459602640149));
#1256=DIRECTION('',(0.,0.,-1.));
#1257=DIRECTION('',(-1.,0.,0.));
#1258=DIRECTION('',(0.,-1.,0.));
#1259=DIRECTION('',(0.745459602640149,0.,0.666550808889758));
#1260=DIRECTION('',(0.666550808889758,0.,-0.745459602640149));
#1261=DIRECTION('',(0.,0.,1.));
#1262=DIRECTION('',(1.,0.,0.));
#1263=DIRECTION('',(0.,-1.,0.));
#1264=DIRECTION('',(0.,-1.,0.));
#1265=DIRECTION('',(0.74545960264015,0.,-0.666550808889757));
#1266=DIRECTION('',(-0.666550808889758,0.,-0.74545960264015));
#1267=DIRECTION('',(0.,0.,1.));
#1268=DIRECTION('',(1.,0.,0.));
#1269=DIRECTION('',(0.,-1.,0.));
#1270=DIRECTION('',(0.74545960264015,0.,-0.666550808889758));
#1271=DIRECTION('',(-0.666550808889758,0.,-0.74545960264015));
#1272=DIRECTION('',(0.,0.,1.));
#1273=DIRECTION('',(1.,0.,0.));
#1274=DIRECTION('',(0.,-1.,0.));
#1275=DIRECTION('',(-1.,0.,-6.82961998416065E-16));
#1276=DIRECTION('',(-6.82961998416065E-16,0.,1.));
#1277=DIRECTION('',(-1.,0.,0.));
#1278=DIRECTION('',(0.,0.,1.));
#1279=DIRECTION('',(0.,-1.,0.));
#1280=DIRECTION('',(0.,0.,-1.));
#1281=DIRECTION('',(-1.,0.,0.));
#1282=DIRECTION('',(-1.,0.,0.));
#1283=DIRECTION('',(0.,0.,1.));
#1284=DIRECTION('',(0.,-1.,0.));
#1285=DIRECTION('',(0.,0.,-1.));
#1286=DIRECTION('',(-1.,0.,0.));
#1287=DIRECTION('',(-1.,0.,0.));
#1288=DIRECTION('',(0.,0.,1.));
#1289=DIRECTION('',(0.,-1.,0.));
#1290=DIRECTION('',(0.,0.,1.));
#1291=DIRECTION('',(1.,0.,0.));
#1292=DIRECTION('',(0.,0.,1.));
#1293=DIRECTION('',(1.,0.,0.));
#1294=DIRECTION('',(0.,0.,1.));
#1295=DIRECTION('',(1.,0.,0.));
#1296=DIRECTION('',(0.,0.,-1.));
#1297=DIRECTION('',(-1.,0.,0.));
#1298=DIRECTION('',(0.,0.,-1.));
#1299=DIRECTION('',(-1.,0.,0.));
#1300=CARTESIAN_POINT('',(0.,0.,0.));
#1301=CARTESIAN_POINT('',(0.04445,-0.00508,0.02159));
#1302=CARTESIAN_POINT('',(0.04445,-0.00254,0.02159));
#1303=CARTESIAN_POINT('',(0.04445,-0.00254,0.028575));
#1304=CARTESIAN_POINT('',(0.04445,-0.00254,0.01524));
#1305=CARTESIAN_POINT('',(0.04445,-0.002538,0.01524));
#1306=CARTESIAN_POINT('',(0.04445,-0.00508,0.01524));
#1307=CARTESIAN_POINT('',(0.04445,-0.00508,0.02159));
#1308=CARTESIAN_POINT('',(0.04445,-0.00508,0.0127));
#1309=CARTESIAN_POINT('',(0.04445,-0.00508,0.0127));
#1310=CARTESIAN_POINT('',(0.04445,0.,0.0127));
#1311=CARTESIAN_POINT('',(0.04445,0.,0.02159));
#1312=CARTESIAN_POINT('',(0.04445,0.,0.03048));
#1313=CARTESIAN_POINT('',(0.04445,-0.00508,0.03048));
#1314=CARTESIAN_POINT('',(0.04445,-0.00508,0.03048));
#1315=CARTESIAN_POINT('',(0.04445,-0.00508,0.02159));
#1316=CARTESIAN_POINT('',(0.04445,-0.00508,0.028575));
#1317=CARTESIAN_POINT('',(0.04445,-0.002538,0.028575));
#1318=CARTESIAN_POINT('',(0.,-0.00254,0.0254));
#1319=CARTESIAN_POINT('',(0.,-0.00254,0.0254));
#1320=CARTESIAN_POINT('',(-0.02667,-0.00254,0.0254));
#1321=CARTESIAN_POINT('',(0.02667,-0.00254,0.0254));
#1322=CARTESIAN_POINT('',(0.02667,-0.002538,0.0254));
#1323=CARTESIAN_POINT('',(0.02667,-0.00508,0.0254));
#1324=CARTESIAN_POINT('',(0.,-0.00508,0.0254));
#1325=CARTESIAN_POINT('',(-0.02667,-0.00508,0.0254));
#1326=CARTESIAN_POINT('',(-0.02667,-0.002538,0.0254));
#1327=CARTESIAN_POINT('',(0.,-0.00254,0.01778));
#1328=CARTESIAN_POINT('',(0.02667,-0.002538,0.01778));
#1329=CARTESIAN_POINT('',(0.02667,-0.00254,0.01778));
#1330=CARTESIAN_POINT('',(0.02667,-0.00508,0.01778));
#1331=CARTESIAN_POINT('',(0.,-0.00254,0.01778));
#1332=CARTESIAN_POINT('',(0.00254,-0.00254,0.01778));
#1333=CARTESIAN_POINT('',(0.00254,2.00000000000027E-6,0.01778));
#1334=CARTESIAN_POINT('',(0.00254,-0.00508,0.01778));
#1335=CARTESIAN_POINT('',(0.,-0.00508,0.01778));
#1336=CARTESIAN_POINT('',(0.,-0.00508,0.02159));
#1337=CARTESIAN_POINT('',(-0.03556,-0.00508,0.01778));
#1338=CARTESIAN_POINT('',(-0.03556,-0.00508,0.01693));
#1339=CARTESIAN_POINT('',(0.03556,-0.00508,0.0254));
#1340=CARTESIAN_POINT('',(0.03556,-0.00508,0.02455));
#1341=CARTESIAN_POINT('',(0.03556,-0.00508,0.01778));
#1342=CARTESIAN_POINT('',(0.03556,-0.00508,0.01693));
#1343=CARTESIAN_POINT('',(-0.03556,-0.00508,0.0254));
#1344=CARTESIAN_POINT('',(-0.03556,-0.00508,0.02455));
#1345=CARTESIAN_POINT('',(-0.03937,-0.00508,0.02159));
#1346=CARTESIAN_POINT('',(-0.03937,-0.00508,0.028575));
#1347=CARTESIAN_POINT('',(-0.03937,-0.00508,0.01524));
#1348=CARTESIAN_POINT('',(-0.04191,-0.00508,0.01524));
#1349=CARTESIAN_POINT('',(-0.04445,-0.00508,0.01524));
#1350=CARTESIAN_POINT('',(-0.04445,-0.00508,0.02159));
#1351=CARTESIAN_POINT('',(-0.04445,-0.00508,0.0127));
#1352=CARTESIAN_POINT('',(0.,-0.00508,0.0127));
#1353=CARTESIAN_POINT('',(-0.003772,-0.00508,0.0127));
#1354=CARTESIAN_POINT('',(-0.0030338812732578,-0.00508,0.0135255));
#1355=CARTESIAN_POINT('',(-0.00229576254651559,-0.00508,0.014351));
#1356=CARTESIAN_POINT('',(-0.0027036812732578,-0.00508,0.014351));
#1357=CARTESIAN_POINT('',(-0.0031116,-0.00508,0.014351));
#1358=CARTESIAN_POINT('',(-0.0023734812732578,-0.00508,0.0151765));
#1359=CARTESIAN_POINT('',(-0.00163536254651559,-0.00508,0.016002));
#1360=CARTESIAN_POINT('',(-0.00204328127325779,-0.00508,0.016002));
#1361=CARTESIAN_POINT('',(-0.0024512,-0.00508,0.016002));
#1362=CARTESIAN_POINT('',(-0.0017130812732578,-0.00508,0.0168275));
#1363=CARTESIAN_POINT('',(-0.000974962546515595,-0.00508,0.017653));
#1364=CARTESIAN_POINT('',(-0.0013828812732578,-0.00508,0.017653));
#1365=CARTESIAN_POINT('',(-0.0017908,-0.00508,0.017653));
#1366=CARTESIAN_POINT('',(-0.001886,-0.00508,0.017415));
#1367=CARTESIAN_POINT('',(-1.7347234759768E-18,-0.00508,0.02213));
#1368=CARTESIAN_POINT('',(0.001886,-0.00508,0.017415));
#1369=CARTESIAN_POINT('',(0.0017908,-0.00508,0.017653));
#1370=CARTESIAN_POINT('',(0.0013828812732578,-0.00508,0.017653));
#1371=CARTESIAN_POINT('',(0.000974962546515595,-0.00508,0.017653));
#1372=CARTESIAN_POINT('',(0.0017130812732578,-0.00508,0.0168275));
#1373=CARTESIAN_POINT('',(0.0024512,-0.00508,0.016002));
#1374=CARTESIAN_POINT('',(0.00204328127325779,-0.00508,0.016002));
#1375=CARTESIAN_POINT('',(0.00163536254651559,-0.00508,0.016002));
#1376=CARTESIAN_POINT('',(0.0023734812732578,-0.00508,0.0151765));
#1377=CARTESIAN_POINT('',(0.0031116,-0.00508,0.014351));
#1378=CARTESIAN_POINT('',(0.0027036812732578,-0.00508,0.014351));
#1379=CARTESIAN_POINT('',(0.00229576254651559,-0.00508,0.014351));
#1380=CARTESIAN_POINT('',(0.0030338812732578,-0.00508,0.0135255));
#1381=CARTESIAN_POINT('',(0.003772,-0.00508,0.0127));
#1382=CARTESIAN_POINT('',(0.,-0.00508,0.0127));
#1383=CARTESIAN_POINT('',(0.04191,-0.00508,0.01524));
#1384=CARTESIAN_POINT('',(0.03937,-0.00508,0.01524));
#1385=CARTESIAN_POINT('',(0.03937,-0.00508,0.02159));
#1386=CARTESIAN_POINT('',(0.03937,-0.00508,0.028575));
#1387=CARTESIAN_POINT('',(0.04191,-0.00508,0.028575));
#1388=CARTESIAN_POINT('',(0.,-0.00508,0.03048));
#1389=CARTESIAN_POINT('',(-0.04445,-0.00508,0.03048));
#1390=CARTESIAN_POINT('',(-0.04445,-0.00508,0.02159));
#1391=CARTESIAN_POINT('',(-0.04445,-0.00508,0.028575));
#1392=CARTESIAN_POINT('',(-0.04191,-0.00508,0.028575));
#1393=CARTESIAN_POINT('',(0.02921,-0.00508,0.028575));
#1394=CARTESIAN_POINT('',(0.03175,-0.00508,0.028575));
#1395=CARTESIAN_POINT('',(0.02667,-0.00508,0.028575));
#1396=CARTESIAN_POINT('',(0.03175,-0.00508,0.02159));
#1397=CARTESIAN_POINT('',(0.03175,-0.00508,0.01524));
#1398=CARTESIAN_POINT('',(0.02921,-0.00508,0.01524));
#1399=CARTESIAN_POINT('',(0.02667,-0.00508,0.01524));
#1400=CARTESIAN_POINT('',(0.02667,-0.00508,0.02032));
#1401=CARTESIAN_POINT('',(0.00127,-0.00508,0.020955));
#1402=CARTESIAN_POINT('',(-1.0842021724855E-18,-0.00508,0.02413));
#1403=CARTESIAN_POINT('',(-0.00127,-0.00508,0.020955));
#1404=CARTESIAN_POINT('',(-0.00254,-0.00508,0.01778));
#1405=CARTESIAN_POINT('',(0.,-0.00508,0.01778));
#1406=CARTESIAN_POINT('',(-0.02667,-0.00508,0.01778));
#1407=CARTESIAN_POINT('',(-0.02667,-0.00508,0.01651));
#1408=CARTESIAN_POINT('',(-0.02667,-0.00508,0.01524));
#1409=CARTESIAN_POINT('',(-0.02921,-0.00508,0.01524));
#1410=CARTESIAN_POINT('',(-0.03175,-0.00508,0.01524));
#1411=CARTESIAN_POINT('',(-0.03175,-0.00508,0.02159));
#1412=CARTESIAN_POINT('',(-0.03175,-0.00508,0.028575));
#1413=CARTESIAN_POINT('',(-0.02921,-0.00508,0.028575));
#1414=CARTESIAN_POINT('',(-0.02667,-0.00508,0.028575));
#1415=CARTESIAN_POINT('',(-0.02667,-0.00508,0.0269875));
#1416=CARTESIAN_POINT('',(0.02667,-0.00508,0.0269875));
#1417=CARTESIAN_POINT('',(-0.001886,0.02032,0.017415));
#1418=CARTESIAN_POINT('',(-0.0017908,2.00000000000027E-6,0.017653));
#1419=CARTESIAN_POINT('',(-0.0017908,0.,0.017653));
#1420=CARTESIAN_POINT('',(-0.000186206896551723,0.,0.0216644827586207));
#1421=CARTESIAN_POINT('',(-1.7347234759768E-18,6.93889390390723E-18,0.02213));
#1422=CARTESIAN_POINT('',(-1.7347234759768E-18,0.02032,0.02213));
#1423=CARTESIAN_POINT('',(0.,-0.00508,0.0127));
#1424=CARTESIAN_POINT('',(0.003772,0.02032,0.0127));
#1425=CARTESIAN_POINT('',(0.003772,8.470329472543E-22,0.0127));
#1426=CARTESIAN_POINT('',(0.,0.,0.0127));
#1427=CARTESIAN_POINT('',(0.,-0.00254,0.01778));
#1428=CARTESIAN_POINT('',(0.,-0.00254,0.01778));
#1429=CARTESIAN_POINT('',(-0.02667,-0.00254,0.01778));
#1430=CARTESIAN_POINT('',(-0.00254,-0.00254,0.01778));
#1431=CARTESIAN_POINT('',(-0.02667,-0.002538,0.01778));
#1432=CARTESIAN_POINT('',(-0.00254,2.00000000000027E-6,0.01778));
#1433=CARTESIAN_POINT('',(0.,-0.00254,0.02159));
#1434=CARTESIAN_POINT('',(-0.03175,-0.00254,0.02159));
#1435=CARTESIAN_POINT('',(-0.03175,-0.00254,0.028575));
#1436=CARTESIAN_POINT('',(-0.03175,-0.00254,0.01524));
#1437=CARTESIAN_POINT('',(-0.02921,-0.00254,0.01524));
#1438=CARTESIAN_POINT('',(-0.02667,-0.00254,0.01524));
#1439=CARTESIAN_POINT('',(-0.02667,-0.00254,0.01651));
#1440=CARTESIAN_POINT('',(-0.00127,-0.00254,0.020955));
#1441=CARTESIAN_POINT('',(-1.0842021724855E-18,-0.00254,0.02413));
#1442=CARTESIAN_POINT('',(0.00127,-0.00254,0.020955));
#1443=CARTESIAN_POINT('',(0.02667,-0.00254,0.02032));
#1444=CARTESIAN_POINT('',(0.02667,-0.00254,0.01524));
#1445=CARTESIAN_POINT('',(0.02921,-0.00254,0.01524));
#1446=CARTESIAN_POINT('',(0.03175,-0.00254,0.01524));
#1447=CARTESIAN_POINT('',(0.03175,-0.00254,0.02159));
#1448=CARTESIAN_POINT('',(0.03175,-0.00254,0.028575));
#1449=CARTESIAN_POINT('',(0.02921,-0.00254,0.028575));
#1450=CARTESIAN_POINT('',(0.02667,-0.00254,0.028575));
#1451=CARTESIAN_POINT('',(0.02667,-0.00254,0.0269875));
#1452=CARTESIAN_POINT('',(-0.02667,-0.00254,0.0269875));
#1453=CARTESIAN_POINT('',(-0.02667,-0.00254,0.028575));
#1454=CARTESIAN_POINT('',(-0.02921,-0.00254,0.028575));
#1455=CARTESIAN_POINT('',(0.,-0.00508,0.03048));
#1456=CARTESIAN_POINT('',(0.,0.,0.03048));
#1457=CARTESIAN_POINT('',(-0.04445,0.,0.03048));
#1458=CARTESIAN_POINT('',(-0.04445,-0.00508,0.03048));
#1459=CARTESIAN_POINT('',(-0.04445,-0.00508,0.02159));
#1460=CARTESIAN_POINT('',(-0.04445,-0.002538,0.01524));
#1461=CARTESIAN_POINT('',(-0.04445,-0.00254,0.01524));
#1462=CARTESIAN_POINT('',(-0.04445,-0.00254,0.02159));
#1463=CARTESIAN_POINT('',(-0.04445,-0.00254,0.028575));
#1464=CARTESIAN_POINT('',(-0.04445,-0.002538,0.028575));
#1465=CARTESIAN_POINT('',(-0.04445,0.,0.02159));
#1466=CARTESIAN_POINT('',(-0.04445,0.,0.0127));
#1467=CARTESIAN_POINT('',(-0.04445,-0.00508,0.0127));
#1468=CARTESIAN_POINT('',(0.,-0.00508,0.0127));
#1469=CARTESIAN_POINT('',(0.,0.,0.0127));
#1470=CARTESIAN_POINT('',(-0.003772,0.,0.0127));
#1471=CARTESIAN_POINT('',(-0.003772,0.02032,0.0127));
#1472=CARTESIAN_POINT('',(0.,0.,0.02159));
#1473=CARTESIAN_POINT('',(-0.03556,0.,0.01778));
#1474=CARTESIAN_POINT('',(-0.03556,0.,0.01693));
#1475=CARTESIAN_POINT('',(0.03556,0.,0.0254));
#1476=CARTESIAN_POINT('',(0.03556,0.,0.02455));
#1477=CARTESIAN_POINT('',(0.03556,0.,0.01778));
#1478=CARTESIAN_POINT('',(0.03556,0.,0.01693));
#1479=CARTESIAN_POINT('',(-0.03556,0.,0.0254));
#1480=CARTESIAN_POINT('',(-0.03556,0.,0.02455));
#1481=CARTESIAN_POINT('',(0.0030338812732578,0.,0.0135255));
#1482=CARTESIAN_POINT('',(0.00229576254651559,8.470329472543E-22,0.014351));
#1483=CARTESIAN_POINT('',(0.0027036812732578,0.,0.014351));
#1484=CARTESIAN_POINT('',(0.0031116,8.470329472543E-22,0.014351));
#1485=CARTESIAN_POINT('',(0.0023734812732578,0.,0.0151765));
#1486=CARTESIAN_POINT('',(0.00163536254651559,8.470329472543E-22,0.016002));
#1487=CARTESIAN_POINT('',(0.00204328127325779,0.,0.016002));
#1488=CARTESIAN_POINT('',(0.0024512,8.470329472543E-22,0.016002));
#1489=CARTESIAN_POINT('',(0.0017130812732578,0.,0.0168275));
#1490=CARTESIAN_POINT('',(0.000974962546515595,8.470329472543E-22,0.017653));
#1491=CARTESIAN_POINT('',(0.0013828812732578,0.,0.017653));
#1492=CARTESIAN_POINT('',(0.0017908,8.470329472543E-22,0.017653));
#1493=CARTESIAN_POINT('',(0.000186206896551721,0.,0.0216644827586207));
#1494=CARTESIAN_POINT('',(-0.0013828812732578,0.,0.017653));
#1495=CARTESIAN_POINT('',(-0.000974962546515595,8.470329472543E-22,0.017653));
#1496=CARTESIAN_POINT('',(-0.0017130812732578,0.,0.0168275));
#1497=CARTESIAN_POINT('',(-0.0024512,0.,0.016002));
#1498=CARTESIAN_POINT('',(-0.00204328127325779,0.,0.016002));
#1499=CARTESIAN_POINT('',(-0.00163536254651559,8.470329472543E-22,0.016002));
#1500=CARTESIAN_POINT('',(-0.0023734812732578,0.,0.0151765));
#1501=CARTESIAN_POINT('',(-0.0031116,0.,0.014351));
#1502=CARTESIAN_POINT('',(-0.0027036812732578,0.,0.014351));
#1503=CARTESIAN_POINT('',(-0.00229576254651559,8.470329472543E-22,0.014351));
#1504=CARTESIAN_POINT('',(-0.0030338812732578,0.,0.0135255));
#1505=CARTESIAN_POINT('',(-0.03556,0.02032,0.0254));
#1506=CARTESIAN_POINT('',(0.03556,0.02032,0.01778));
#1507=CARTESIAN_POINT('',(0.03556,0.02032,0.0254));
#1508=CARTESIAN_POINT('',(-0.03556,0.02032,0.01778));
#1509=CARTESIAN_POINT('',(0.03937,-0.00254,0.02159));
#1510=CARTESIAN_POINT('',(0.03937,-0.002538,0.01524));
#1511=CARTESIAN_POINT('',(0.03937,-0.00254,0.01524));
#1512=CARTESIAN_POINT('',(0.03937,-0.00254,0.02159));
#1513=CARTESIAN_POINT('',(0.03937,-0.00254,0.028575));
#1514=CARTESIAN_POINT('',(0.03937,-0.002538,0.028575));
#1515=CARTESIAN_POINT('',(0.,-0.00254,0.02159));
#1516=CARTESIAN_POINT('',(0.04191,-0.00254,0.028575));
#1517=CARTESIAN_POINT('',(0.04191,-0.00254,0.01524));
#1518=CARTESIAN_POINT('',(-0.03175,-0.00254,0.02159));
#1519=CARTESIAN_POINT('',(-0.03175,-0.002538,0.01524));
#1520=CARTESIAN_POINT('',(-0.03175,-0.002538,0.028575));
#1521=CARTESIAN_POINT('',(0.03175,-0.00254,0.02159));
#1522=CARTESIAN_POINT('',(0.03175,-0.002538,0.028575));
#1523=CARTESIAN_POINT('',(0.03175,-0.002538,0.01524));
#1524=CARTESIAN_POINT('',(-0.03937,-0.00254,0.02159));
#1525=CARTESIAN_POINT('',(-0.03937,-0.002538,0.028575));
#1526=CARTESIAN_POINT('',(-0.03937,-0.00254,0.028575));
#1527=CARTESIAN_POINT('',(-0.03937,-0.00254,0.02159));
#1528=CARTESIAN_POINT('',(-0.03937,-0.00254,0.01524));
#1529=CARTESIAN_POINT('',(-0.03937,-0.002538,0.01524));
#1530=CARTESIAN_POINT('',(0.,-0.00254,0.02159));
#1531=CARTESIAN_POINT('',(-0.04191,-0.00254,0.028575));
#1532=CARTESIAN_POINT('',(-0.04191,-0.00254,0.01524));
#1533=CARTESIAN_POINT('',(0.00127,2.00000000000027E-6,0.020955));
#1534=CARTESIAN_POINT('',(-1.0842021724855E-18,2.00000000000027E-6,0.02413));
#1535=CARTESIAN_POINT('',(-0.00127,2.00000000000027E-6,0.020955));
#1536=CARTESIAN_POINT('',(0.001886,0.02032,0.017415));
#1537=CARTESIAN_POINT('',(0.0017908,2.00000000000027E-6,0.017653));
#1538=CARTESIAN_POINT('',(-0.0027036812732578,2.00000000000027E-6,0.014351));
#1539=CARTESIAN_POINT('',(-0.0031116,2.00000000000027E-6,0.014351));
#1540=CARTESIAN_POINT('',(-0.00229576254651559,2.00000000000027E-6,0.014351));
#1541=CARTESIAN_POINT('',(-0.0030338812732578,2.00000000000027E-6,0.0135255));
#1542=CARTESIAN_POINT('',(0.0027036812732578,2.00000000000027E-6,0.014351));
#1543=CARTESIAN_POINT('',(0.0031116,2.00000000000027E-6,0.014351));
#1544=CARTESIAN_POINT('',(0.00229576254651559,2.00000000000027E-6,0.014351));
#1545=CARTESIAN_POINT('',(0.0030338812732578,2.00000000000027E-6,0.0135255));
#1546=CARTESIAN_POINT('',(0.00204328127325779,2.00000000000027E-6,0.016002));
#1547=CARTESIAN_POINT('',(0.0024512,2.00000000000027E-6,0.016002));
#1548=CARTESIAN_POINT('',(0.00163536254651559,2.00000000000027E-6,0.016002));
#1549=CARTESIAN_POINT('',(0.0023734812732578,2.00000000000027E-6,0.0151765));
#1550=CARTESIAN_POINT('',(0.0013828812732578,2.00000000000027E-6,0.017653));
#1551=CARTESIAN_POINT('',(0.000974962546515595,2.00000000000027E-6,0.017653));
#1552=CARTESIAN_POINT('',(0.0017130812732578,2.00000000000027E-6,0.0168275));
#1553=CARTESIAN_POINT('',(-0.00204328127325779,2.00000000000027E-6,0.016002));
#1554=CARTESIAN_POINT('',(-0.0024512,2.00000000000027E-6,0.016002));
#1555=CARTESIAN_POINT('',(-0.00163536254651559,2.00000000000027E-6,0.016002));
#1556=CARTESIAN_POINT('',(-0.0023734812732578,2.00000000000027E-6,0.0151765));
#1557=CARTESIAN_POINT('',(-0.0013828812732578,2.00000000000027E-6,0.017653));
#1558=CARTESIAN_POINT('',(-0.000974962546515595,2.00000000000027E-6,0.017653));
#1559=CARTESIAN_POINT('',(-0.0017130812732578,2.00000000000027E-6,0.0168275));
#1560=CARTESIAN_POINT('',(0.02921,-0.002538,0.01524));
#1561=CARTESIAN_POINT('',(0.02667,-0.002538,0.01524));
#1562=CARTESIAN_POINT('',(0.02667,-0.002538,0.02032));
#1563=CARTESIAN_POINT('',(-0.02667,-0.002538,0.0269875));
#1564=CARTESIAN_POINT('',(-0.02667,-0.002538,0.028575));
#1565=CARTESIAN_POINT('',(-0.02921,-0.002538,0.028575));
#1566=CARTESIAN_POINT('',(-0.02667,-0.002538,0.01651));
#1567=CARTESIAN_POINT('',(-0.02667,-0.002538,0.01524));
#1568=CARTESIAN_POINT('',(-0.02921,-0.002538,0.01524));
#1569=CARTESIAN_POINT('',(0.02667,-0.002538,0.0269875));
#1570=CARTESIAN_POINT('',(0.02667,-0.002538,0.028575));
#1571=CARTESIAN_POINT('',(0.02921,-0.002538,0.028575));
#1572=CARTESIAN_POINT('',(-0.04191,-0.002538,0.028575));
#1573=CARTESIAN_POINT('',(-0.04191,-0.002538,0.01524));
#1574=CARTESIAN_POINT('',(0.04191,-0.002538,0.028575));
#1575=CARTESIAN_POINT('',(0.04191,-0.002538,0.01524));
#1576=MECHANICAL_DESIGN_GEOMETRIC_PRESENTATION_REPRESENTATION('',(#989),
#1577);
#1577=(
GEOMETRIC_REPRESENTATION_CONTEXT(3)
GLOBAL_UNCERTAINTY_ASSIGNED_CONTEXT((#1578))
GLOBAL_UNIT_ASSIGNED_CONTEXT((#1581,#1580,#1579))
REPRESENTATION_CONTEXT('CatsEyesHolder','TOP_LEVEL_ASSEMBLY_PART')
);
#1578=UNCERTAINTY_MEASURE_WITH_UNIT(LENGTH_MEASURE(1.E-8),#1581,
'DISTANCE_ACCURACY_VALUE','Maximum Tolerance applied to model');
#1579=(
NAMED_UNIT(*)
SI_UNIT($,.STERADIAN.)
SOLID_ANGLE_UNIT()
);
#1580=(
NAMED_UNIT(*)
PLANE_ANGLE_UNIT()
SI_UNIT($,.RADIAN.)
);
#1581=(
LENGTH_UNIT()
NAMED_UNIT(*)
SI_UNIT($,.METRE.)
);
#1582=PRODUCT_DEFINITION_SHAPE('','',#1583);
#1583=PRODUCT_DEFINITION('','',#1585,#1584);
#1584=PRODUCT_DEFINITION_CONTEXT('',#1591,'design');
#1585=PRODUCT_DEFINITION_FORMATION_WITH_SPECIFIED_SOURCE('','',#1587,
 .NOT_KNOWN.);
#1586=PRODUCT_RELATED_PRODUCT_CATEGORY('','',(#1587));
#1587=PRODUCT('CatsEyesHolder','CatsEyesHolder','CatsEyesHolder',(#1589));
#1588=PRODUCT_CATEGORY('','');
#1589=PRODUCT_CONTEXT('',#1591,'mechanical');
#1590=APPLICATION_PROTOCOL_DEFINITION('international standard',
'ap242_managed_model_based_3d_engineering',2020,#1591);
#1591=APPLICATION_CONTEXT('managed model based 3d engineering');
ENDSEC;
END-ISO-10303-21;
